<svg width="26" height="56" viewBox="0 0 26 56" fill="none" xmlns="http://www.w3.org/2000/svg">
<path d="M22.4314 6.93297H21.3529V3.2663C21.3529 1.48236 19.9016 0.0310059 18.1176 0.0310059H7.54902C5.76508 0.0310059 4.31373 1.48236 4.31373 3.2663V6.93297H3.23529C1.45135 6.93297 0 8.38432 0 10.1683V51.7957C0 53.5797 1.45135 55.031 3.23529 55.031H22.4314C24.2153 55.031 25.6667 53.5797 25.6667 51.7957V10.1683C25.6667 8.38432 24.2153 6.93297 22.4314 6.93297ZM7.54902 3.2663H18.1176V6.93297H7.54902V3.2663ZM22.4314 51.7957H3.23529V10.1683H22.4314C22.4334 52.6443 22.4422 51.7957 22.4314 51.7957Z" fill="black"/>
<path d="M17.1474 18.1487H14.4513V15.4526C14.4513 14.5592 13.727 13.835 12.8336 13.835C11.9402 13.835 11.216 14.5592 11.216 15.4526V18.1487H8.51999C7.62662 18.1487 6.90234 18.873 6.90234 19.7663C6.90234 20.6597 7.62662 21.384 8.51999 21.384H11.216V24.0801C11.216 24.9734 11.9402 25.6977 12.8336 25.6977C13.727 25.6977 14.4513 24.9734 14.4513 24.0801V21.384H17.1474C18.0408 21.384 18.7651 20.6597 18.7651 19.7663C18.7651 18.873 18.0408 18.1487 17.1474 18.1487Z" fill="black"/>
<path d="M17.1474 44.8938H8.51999C7.62662 44.8938 6.90234 45.6181 6.90234 46.5114C6.90234 47.4048 7.62662 48.1291 8.51999 48.1291H17.1474C18.0408 48.1291 18.7651 47.4048 18.7651 46.5114C18.7651 45.6181 18.0408 44.8938 17.1474 44.8938Z" fill="black"/>
</svg>
