<svg width="54" height="55" viewBox="0 0 54 55" fill="none" xmlns="http://www.w3.org/2000/svg">
<path d="M53.7781 5.5C53.774 5.33484 53.7238 5.1746 53.6323 5.03629L53.6454 5.02779L50.8638 0.444458C50.6963 0.168742 50.3948 0 50.0693 0H31.5252C31.1997 0 30.8982 0.168742 30.7307 0.444458L27.9491 5.02779L27.9622 5.03629C27.8707 5.1746 27.8205 5.33484 27.8164 5.5V49.5C27.8205 49.6652 27.8707 49.8254 27.9622 49.9637L27.9491 49.9722L30.7307 54.5555C30.8982 54.8313 31.1997 55 31.5252 55H50.0693C50.3948 55 50.6963 54.8313 50.8638 54.5555L53.6454 49.9722L53.6323 49.9637C53.7238 49.8254 53.774 49.6652 53.7781 49.5V5.5ZM49.5446 53.1667H32.0499L30.3812 50.4167H51.2133L49.5446 53.1667ZM51.9237 44.8701C46.3166 44.3724 42.1785 39.4753 42.682 33.9319C43.1225 29.0773 47.0138 25.2307 51.9237 24.7948V44.8701ZM51.9237 22.9614C45.292 23.4574 40.3232 29.1744 40.8249 35.7303C41.2735 41.5969 45.9897 46.2594 51.9237 46.7034V48.5833H29.6708V45.751C32.3442 45.3016 34.3018 43.0144 34.3068 40.3333V31.1667C34.3068 29.1418 35.9675 27.5 38.0156 27.5C41.087 27.4969 43.5757 25.0365 43.5789 22V14.6667C43.5789 12.6418 45.2395 11 47.2877 11H51.9237V22.9614ZM51.9237 9.16667H47.2877C44.2163 9.1698 41.7276 11.6302 41.7245 14.6667V22C41.7245 24.0249 40.0638 25.6667 38.0156 25.6667C34.9443 25.6698 32.4556 28.1302 32.4524 31.1667V40.3333C32.4461 42.0002 31.3034 43.453 29.6708 43.8697V6.41667H34.3068V4.58333H30.3812L32.0499 1.83333H49.5446L51.2133 4.58333H39.87V6.41667H51.9237V9.16667Z" fill="black"/>
<path d="M25.9617 19.25C25.9576 19.0848 25.9074 18.9246 25.8159 18.7863L25.829 18.7778L23.0474 14.1944C22.8799 13.9187 22.5784 13.75 22.2529 13.75H12.2207L12.5109 12.0294C12.8084 10.261 11.5995 8.58924 9.81079 8.29472C8.02203 8.00065 6.33061 9.19572 6.03316 10.9642C5.97385 11.3169 5.97385 11.6767 6.03316 12.0294L6.32336 13.75H3.70881C3.3833 13.75 3.08177 13.9187 2.91426 14.1944L0.132652 18.7778L0.145781 18.7863C0.0543283 18.9246 0.00407462 19.0848 0 19.25V49.5C0.00407462 49.6651 0.0543283 49.8253 0.145781 49.9637L0.132652 49.9722L2.91426 54.5555C3.08177 54.8312 3.3833 55 3.70881 55H22.2529C22.5784 55 22.8799 54.8312 23.0474 54.5555L25.829 49.9722L25.8159 49.9637C25.9074 49.8253 25.9576 49.6651 25.9617 49.5V19.25ZM8.18184 10.5873C8.73101 9.99199 9.66501 9.94991 10.2671 10.4933C10.3002 10.5233 10.3323 10.5546 10.3622 10.5873C10.6343 10.9037 10.7511 11.3227 10.6823 11.7322L10.3409 13.75H8.20312L7.86176 11.7331C7.79249 11.3236 7.90975 10.9042 8.18184 10.5873ZM21.7282 53.1666H4.23353L2.56475 50.4166H23.3969L21.7282 53.1666ZM24.1073 44.8535C20.0462 44.3504 17.1659 40.6878 17.6748 36.6724C18.0963 33.3482 20.7448 30.7298 24.1073 30.3131V44.8535ZM24.1073 28.4632C19.0122 28.969 15.2961 33.4623 15.8077 38.4995C16.2482 42.838 19.7189 46.2697 24.1073 46.7052V48.5833H1.85441V45.7509C4.52781 45.3015 6.48544 43.0144 6.49042 40.3333V38.5C6.49042 36.4751 8.15106 34.8333 10.1992 34.8333C13.2706 34.8302 15.7593 32.3697 15.7625 29.3333V28.4166C15.7625 26.3917 17.4231 24.75 19.4713 24.75H24.1073V28.4632ZM24.1073 22.9166H19.4713C16.3999 22.9198 13.9112 25.3802 13.908 28.4166V29.3333C13.908 31.3582 12.2474 33 10.1992 33C7.12787 33.0031 4.63918 35.4635 4.63602 38.5V40.3333C4.62968 42.0001 3.48697 43.453 1.85441 43.8697V20.1666H5.56322V18.3333H2.56475L4.23353 15.5833H21.7282L23.3969 18.3333H13.908V20.1666H24.1073V22.9166Z" fill="black"/>
</svg>
