<svg width="53" height="57" viewBox="0 0 53 57" fill="none" xmlns="http://www.w3.org/2000/svg">
<path d="M51.3035 8.35952H48.532V5.58807C48.532 5.34306 48.4347 5.10808 48.2615 4.93483C48.0882 4.76159 47.8532 4.66425 47.6082 4.66425H38.7488L35.3307 1.2369C35.1546 1.06674 34.9197 0.970818 34.6748 0.968994H6.96036C6.71535 0.968994 6.48037 1.06632 6.30712 1.23957C6.13387 1.41282 6.03654 1.6478 6.03654 1.89281V37.9216C4.56648 37.9216 3.15662 38.5056 2.11713 39.5451C1.07763 40.5846 0.493652 41.9944 0.493652 43.4645C0.493652 44.9346 1.07763 46.3444 2.11713 47.3839C3.15662 48.4234 4.56648 49.0074 6.03654 49.0074H9.7318V51.7788C9.7318 52.0238 9.82913 52.2588 10.0024 52.4321C10.1756 52.6053 10.4106 52.7026 10.6556 52.7026H13.4271V55.4741C13.4271 55.7191 13.5244 55.9541 13.6976 56.1273C13.8709 56.3006 14.1059 56.3979 14.3509 56.3979H51.3035C51.5485 56.3979 51.7835 56.3006 51.9567 56.1273C52.13 55.9541 52.2273 55.7191 52.2273 55.4741V9.28333C52.2273 9.03832 52.13 8.80334 51.9567 8.6301C51.7835 8.45685 51.5485 8.35952 51.3035 8.35952ZM35.5986 4.1192L41.6866 10.2071H36.5224C36.2774 10.2071 36.0425 10.1098 35.8692 9.93657C35.696 9.76332 35.5986 9.52834 35.5986 9.28333V4.1192ZM7.88417 2.81662H33.751V9.28333C33.7532 10.0177 34.0459 10.7213 34.5652 11.2406C35.0844 11.7599 35.7881 12.0526 36.5224 12.0548H42.9892V43.4645C42.9892 44.4445 42.5998 45.3844 41.9068 46.0774C41.2138 46.7704 40.2739 47.1598 39.2939 47.1598H37.4463C36.4662 47.1598 35.5263 46.7704 34.8333 46.0774C34.1403 45.3844 33.751 44.4445 33.751 43.4645C33.751 42.4844 34.1403 41.5445 34.8333 40.8516C35.5263 40.1586 36.4662 39.7692 37.4463 39.7692C37.6913 39.7692 37.9262 39.6719 38.0995 39.4987C38.2727 39.3254 38.3701 39.0904 38.3701 38.8454C38.3701 38.6004 38.2727 38.3654 38.0995 38.1922C37.9262 38.0189 37.6913 37.9216 37.4463 37.9216H7.88417V2.81662ZM6.03654 47.1598C5.0565 47.1598 4.1166 46.7704 3.4236 46.0774C2.7306 45.3844 2.34128 44.4445 2.34128 43.4645C2.34128 42.4844 2.7306 41.5445 3.4236 40.8516C4.1166 40.1586 5.0565 39.7692 6.03654 39.7692H33.3168C32.4067 40.7849 31.9034 42.1007 31.9034 43.4645C31.9034 44.8283 32.4067 46.1441 33.3168 47.1598H6.03654ZM11.5794 50.855V49.0074H39.2939C40.764 49.0074 42.1738 48.4234 43.2133 47.3839C44.2528 46.3444 44.8368 44.9346 44.8368 43.4645V11.131C44.835 10.886 44.739 10.6512 44.5689 10.4751L40.5965 6.51189H46.6844V50.855H11.5794ZM50.3797 54.5503H15.2747V52.7026H47.6082C47.8532 52.7026 48.0882 52.6053 48.2615 52.4321C48.4347 52.2588 48.532 52.0238 48.532 51.7788V10.2071H50.3797V54.5503Z" fill="black"/>
<path d="M20.8176 11.1309H30.0558V12.9785H20.8176V11.1309Z" fill="black"/>
<path d="M11.5793 16.6736H39.2938V18.5212H11.5793V16.6736Z" fill="black"/>
<path d="M11.5793 22.2168H39.2938V24.0644H11.5793V22.2168Z" fill="black"/>
<path d="M28.208 27.7593H39.2938V29.6069H28.208V27.7593Z" fill="black"/>
</svg>
