<svg width="71" height="13" viewBox="0 0 71 13" fill="none" xmlns="http://www.w3.org/2000/svg">
<path d="M6.22 12.176C4.95067 12.176 3.87333 11.936 2.988 11.456C2.11333 10.976 1.44667 10.304 0.988 9.44C0.529333 8.576 0.3 7.56267 0.3 6.4C0.3 5.20533 0.534667 4.17067 1.004 3.296C1.484 2.42133 2.172 1.744 3.068 1.264C3.964 0.784 5.04133 0.544 6.3 0.544C6.876 0.544 7.452 0.607999 8.028 0.735999C8.604 0.863999 9.15867 1.07733 9.692 1.376C9.98 1.536 10.1507 1.74933 10.204 2.016C10.268 2.28267 10.2413 2.544 10.124 2.8C10.0067 3.04533 9.82533 3.22667 9.58 3.344C9.34533 3.45067 9.06267 3.424 8.732 3.264C8.01733 2.89067 7.212 2.704 6.316 2.704C5.17467 2.704 4.316 3.024 3.74 3.664C3.17467 4.29333 2.892 5.20533 2.892 6.4C2.892 7.60533 3.18 8.51733 3.756 9.136C4.34267 9.75467 5.20667 10.064 6.348 10.064C6.956 10.064 7.596 9.968 8.268 9.776V7.568H6.828C6.16667 7.568 5.836 7.26933 5.836 6.672C5.836 6.07467 6.16667 5.776 6.828 5.776H9.34C9.99067 5.776 10.316 6.10667 10.316 6.768V10.48C10.316 10.7573 10.2573 10.992 10.14 11.184C10.0333 11.376 9.85733 11.5147 9.612 11.6C9.132 11.7707 8.59333 11.9093 7.996 12.016C7.39867 12.1227 6.80667 12.176 6.22 12.176ZM45.4837 12.176C44.2144 12.176 43.1371 11.936 42.2517 11.456C41.3771 10.976 40.7104 10.304 40.2517 9.44C39.7931 8.576 39.5637 7.56267 39.5637 6.4C39.5637 5.20533 39.7984 4.17067 40.2677 3.296C40.7477 2.42133 41.4357 1.744 42.3317 1.264C43.2277 0.784 44.3051 0.544 45.5637 0.544C46.1397 0.544 46.7157 0.607999 47.2917 0.735999C47.8677 0.863999 48.4224 1.07733 48.9557 1.376C49.2437 1.536 49.4144 1.74933 49.4677 2.016C49.5317 2.28267 49.5051 2.544 49.3877 2.8C49.2704 3.04533 49.0891 3.22667 48.8437 3.344C48.6091 3.45067 48.3264 3.424 47.9957 3.264C47.2811 2.89067 46.4757 2.704 45.5797 2.704C44.4384 2.704 43.5797 3.024 43.0037 3.664C42.4384 4.29333 42.1557 5.20533 42.1557 6.4C42.1557 7.60533 42.4437 8.51733 43.0197 9.136C43.6064 9.75467 44.4704 10.064 45.6117 10.064C46.2197 10.064 46.8597 9.968 47.5317 9.776V7.568H46.0917C45.4304 7.568 45.0997 7.26933 45.0997 6.672C45.0997 6.07467 45.4304 5.776 46.0917 5.776H48.6037C49.2544 5.776 49.5797 6.10667 49.5797 6.768V10.48C49.5797 10.7573 49.5211 10.992 49.4037 11.184C49.2971 11.376 49.1211 11.5147 48.8757 11.6C48.3957 11.7707 47.8571 11.9093 47.2597 12.016C46.6624 12.1227 46.0704 12.176 45.4837 12.176Z" fill="#4285F4"/>
<path d="M18.383 12.176C17.2737 12.176 16.2977 11.936 15.455 11.456C14.623 10.9653 13.9723 10.288 13.503 9.424C13.0443 8.54933 12.815 7.52533 12.815 6.352C12.815 5.17867 13.0443 4.16 13.503 3.296C13.9723 2.42133 14.623 1.744 15.455 1.264C16.287 0.784 17.263 0.544 18.383 0.544C19.503 0.544 20.479 0.784 21.311 1.264C22.1537 1.744 22.8043 2.42133 23.263 3.296C23.7323 4.16 23.967 5.17333 23.967 6.336C23.967 7.50933 23.7323 8.53333 23.263 9.408C22.8043 10.2827 22.1537 10.9653 21.311 11.456C20.479 11.936 19.503 12.176 18.383 12.176ZM18.383 10.064C19.3217 10.064 20.0523 9.73867 20.575 9.088C21.1083 8.42667 21.375 7.51467 21.375 6.352C21.375 5.17867 21.1137 4.272 20.591 3.632C20.0683 2.98133 19.3323 2.656 18.383 2.656C17.455 2.656 16.7243 2.98133 16.191 3.632C15.6683 4.272 15.407 5.17867 15.407 6.352C15.407 7.51467 15.6683 8.42667 16.191 9.088C16.7243 9.73867 17.455 10.064 18.383 10.064ZM63.5226 12C62.6586 12 62.2266 11.568 62.2266 10.704V2.016C62.2266 1.152 62.6586 0.719999 63.5226 0.719999H69.1066C69.7573 0.719999 70.0826 1.04 70.0826 1.68C70.0826 2.33067 69.7573 2.656 69.1066 2.656H64.5946V5.296H68.7386C69.4 5.296 69.7306 5.62133 69.7306 6.272C69.7306 6.92267 69.4 7.248 68.7386 7.248H64.5946V10.064H69.1066C69.7573 10.064 70.0826 10.384 70.0826 11.024C70.0826 11.6747 69.7573 12 69.1066 12H63.5226Z" fill="#DB4437"/>
<path d="M31.7574 12.176C30.648 12.176 29.672 11.936 28.8294 11.456C27.9974 10.9653 27.3467 10.288 26.8774 9.424C26.4187 8.54933 26.1894 7.52533 26.1894 6.352C26.1894 5.17867 26.4187 4.16 26.8774 3.296C27.3467 2.42133 27.9974 1.744 28.8294 1.264C29.6614 0.784 30.6374 0.544 31.7574 0.544C32.8774 0.544 33.8534 0.784 34.6854 1.264C35.528 1.744 36.1787 2.42133 36.6374 3.296C37.1067 4.16 37.3414 5.17333 37.3414 6.336C37.3414 7.50933 37.1067 8.53333 36.6374 9.408C36.1787 10.2827 35.528 10.9653 34.6854 11.456C33.8534 11.936 32.8774 12.176 31.7574 12.176ZM31.7574 10.064C32.696 10.064 33.4267 9.73867 33.9494 9.088C34.4827 8.42667 34.7494 7.51467 34.7494 6.352C34.7494 5.17867 34.488 4.272 33.9654 3.632C33.4427 2.98133 32.7067 2.656 31.7574 2.656C30.8294 2.656 30.0987 2.98133 29.5654 3.632C29.0427 4.272 28.7814 5.17867 28.7814 6.352C28.7814 7.51467 29.0427 8.42667 29.5654 9.088C30.0987 9.73867 30.8294 10.064 31.7574 10.064Z" fill="#F4B400"/>
<path d="M53.6788 12C53.2628 12 52.9481 11.8933 52.7348 11.68C52.5214 11.456 52.4148 11.1413 52.4148 10.736V1.952C52.4148 1.54667 52.5214 1.23733 52.7348 1.024C52.9481 0.8 53.2574 0.688 53.6628 0.688C54.4841 0.688 54.8948 1.10933 54.8948 1.952V9.904H59.1828C59.8974 9.904 60.2548 10.2507 60.2548 10.944C60.2548 11.648 59.8974 12 59.1828 12H53.6788Z" fill="#2BA84A"/>
</svg>
