<svg width="160" height="51" viewBox="0 0 160 51" fill="none" xmlns="http://www.w3.org/2000/svg">
<path d="M21.6279 50.8698C21.4092 50.8698 21.1891 50.8137 20.9859 50.7014C20.4994 50.43 20.1925 49.878 20.1925 49.273V44.4827H4.30684C3.53873 44.4827 2.78163 44.2535 2.11717 43.8184C1.44706 43.377 0.900406 42.7472 0.530325 41.9955C0.161584 41.2485 -0.0206339 40.3988 0.00185617 39.541C0.0284614 38.6819 0.259774 37.8476 0.671964 37.1224L9.50358 21.8502C9.72226 21.4681 10.0769 21.2061 10.4792 21.1329C10.8801 21.058 11.2922 21.1781 11.6118 21.4619L16.1214 25.4788C16.6934 25.9871 16.828 26.8947 16.4354 27.5824L12.2468 34.902H20.1922V30.1117C20.1922 29.5066 20.4992 28.9548 20.9856 28.6834C21.4735 28.4136 22.0551 28.4728 22.4883 28.8347L33.9718 38.4152C34.3335 38.7162 34.5466 39.1903 34.5466 39.6923C34.5466 40.1944 34.3335 40.6684 33.9718 40.9694L22.4883 50.55C22.2362 50.7621 21.9321 50.8698 21.6279 50.8698Z" fill="white"/>
<path d="M11.3498 30.163C11.1017 30.163 10.8535 30.0913 10.6321 29.9494C10.2409 29.6983 9.9788 29.2554 9.92415 28.7565L8.20696 12.9028C8.14246 12.3023 8.38784 11.713 8.84205 11.3792C9.29481 11.0455 9.87659 11.0268 10.3504 11.3293L14.1338 13.7604L20.8652 1.9905C22.3876 -0.6635 26.6098 -0.6635 28.1321 1.9905L34.8076 13.6605C35.1946 14.3373 35.0698 15.2277 34.5175 15.7423L30.0766 19.8762C29.7611 20.1741 29.3532 20.3019 28.9355 20.2302C28.5275 20.16 28.166 19.8964 27.9445 19.5097L24.4975 13.4843L21.5958 18.5507L25.2686 20.91C25.7396 21.2126 26.0158 21.7848 25.9836 22.3883C25.9513 22.9918 25.6148 23.5235 25.1145 23.762L11.9138 30.0353C11.7324 30.1211 11.5419 30.163 11.3498 30.163Z" fill="white"/>
<path d="M48.3369 37.1376V37.1056L40.0018 22.7348L43.7052 20.3715C44.1932 20.052 44.4516 19.5092 44.4229 18.9024C44.3943 18.2956 44.0497 17.7527 43.5617 17.5292L30.3556 11.2379C29.9538 11.0463 29.4657 11.0782 29.0925 11.3338C28.6906 11.5894 28.4322 12.0364 28.3747 12.5154L26.6522 28.3871C26.5947 28.9622 26.8245 29.5687 27.2838 29.8882C27.7433 30.2395 28.3174 30.2395 28.8055 29.9522L32.5376 27.557L36.7578 34.9022H29.7529L33.973 38.415C34.3462 38.7025 34.5472 39.1815 34.5472 39.6925C34.5472 40.2033 34.3462 40.6824 33.973 40.9697L29.7529 44.4827H44.691C45.4662 44.4827 46.2127 44.2592 46.8729 43.812C47.562 43.3648 48.1074 42.758 48.4519 41.9916C48.8252 41.2572 49.0261 40.3949 48.9974 39.5327C48.9683 38.6705 48.7387 37.8401 48.3369 37.1376Z" fill="white"/>
<path d="M65.129 42.4598C64.597 42.4598 64.191 42.3128 63.911 42.0188C63.631 41.7248 63.491 41.3118 63.491 40.7798V28.9358C63.491 28.4038 63.631 27.9978 63.911 27.7178C64.191 27.4238 64.597 27.2768 65.129 27.2768C66.207 27.2768 66.746 27.8298 66.746 28.9358V33.9128H66.788L72.374 28.0748C72.612 27.8228 72.857 27.6338 73.109 27.5078C73.375 27.3678 73.676 27.2978 74.012 27.2978C74.488 27.2978 74.838 27.4238 75.062 27.6758C75.286 27.9278 75.384 28.2288 75.356 28.5788C75.328 28.9148 75.174 29.2228 74.894 29.5028L69.959 34.5428L75.188 40.1078C75.51 40.4578 75.671 40.8148 75.671 41.1788C75.685 41.5428 75.566 41.8508 75.314 42.1028C75.076 42.3408 74.719 42.4598 74.243 42.4598C73.837 42.4598 73.508 42.3758 73.256 42.2078C73.018 42.0398 72.752 41.7948 72.458 41.4728L66.788 35.5088H66.746V40.7798C66.746 41.3118 66.606 41.7248 66.326 42.0188C66.06 42.3128 65.661 42.4598 65.129 42.4598ZM79.608 42.2708C79.062 42.2708 78.649 42.1308 78.369 41.8508C78.089 41.5568 77.949 41.1438 77.949 40.6118V29.0828C77.949 28.5508 78.089 28.1448 78.369 27.8648C78.649 27.5708 79.055 27.4238 79.587 27.4238C80.665 27.4238 81.204 27.9768 81.204 29.0828V39.5198H86.832C87.77 39.5198 88.239 39.9748 88.239 40.8848C88.239 41.8088 87.77 42.2708 86.832 42.2708H79.608ZM91.6251 42.4598C91.0931 42.4598 90.6871 42.3128 90.4071 42.0188C90.1271 41.7248 89.9871 41.3118 89.9871 40.7798V28.9568C89.9871 27.8368 90.5331 27.2768 91.6251 27.2768C92.7031 27.2768 93.2421 27.8368 93.2421 28.9568V40.7798C93.2421 41.8998 92.7031 42.4598 91.6251 42.4598ZM97.7335 42.4598C96.7255 42.4598 96.2215 41.9348 96.2215 40.8848V28.9148C96.2215 28.3828 96.3475 27.9768 96.5995 27.6968C96.8655 27.4168 97.2155 27.2768 97.6495 27.2768C98.0135 27.2768 98.3005 27.3538 98.5105 27.5078C98.7205 27.6478 98.9585 27.8858 99.2245 28.2218L106.028 36.8948V28.8308C106.028 27.7948 106.532 27.2768 107.54 27.2768C108.548 27.2768 109.052 27.7948 109.052 28.8308V40.9478C109.052 41.4098 108.933 41.7808 108.695 42.0608C108.457 42.3268 108.135 42.4598 107.729 42.4598C107.337 42.4598 107.022 42.3828 106.784 42.2288C106.56 42.0748 106.315 41.8298 106.049 41.4938L99.2455 32.8208V40.8848C99.2455 41.9348 98.7415 42.4598 97.7335 42.4598ZM119.557 42.2708C119.011 42.2708 118.598 42.1308 118.318 41.8508C118.038 41.5568 117.898 41.1438 117.898 40.6118V29.0828C117.898 28.5508 118.038 28.1448 118.318 27.8648C118.598 27.5708 119.004 27.4238 119.536 27.4238C120.614 27.4238 121.153 27.9768 121.153 29.0828V39.5198H126.781C127.719 39.5198 128.188 39.9748 128.188 40.8848C128.188 41.8088 127.719 42.2708 126.781 42.2708H119.557ZM130.11 42.4598C129.522 42.4598 129.102 42.2638 128.85 41.8718C128.598 41.4798 128.605 40.9968 128.871 40.4228L134.247 28.6418C134.471 28.1658 134.737 27.8228 135.045 27.6128C135.353 27.3888 135.71 27.2768 136.116 27.2768C136.522 27.2768 136.879 27.3888 137.187 27.6128C137.495 27.8228 137.754 28.1658 137.964 28.6418L143.382 40.4228C143.648 41.0108 143.655 41.5008 143.403 41.8928C143.165 42.2708 142.773 42.4598 142.227 42.4598C141.751 42.4598 141.38 42.3478 141.114 42.1238C140.862 41.8998 140.638 41.5498 140.442 41.0738L139.56 39.0578H132.651L131.79 41.0738C131.58 41.5638 131.356 41.9208 131.118 42.1448C130.88 42.3548 130.544 42.4598 130.11 42.4598ZM136.074 30.9308L133.743 36.5168H138.489L136.116 30.9308H136.074ZM152.482 42.5018C150.816 42.5018 149.402 42.1868 148.24 41.5568C147.092 40.9268 146.217 40.0448 145.615 38.9108C145.013 37.7768 144.712 36.4468 144.712 34.9208C144.712 33.3528 145.02 31.9948 145.636 30.8468C146.266 29.6988 147.169 28.8098 148.345 28.1798C149.521 27.5498 150.935 27.2348 152.587 27.2348C153.343 27.2348 154.099 27.3188 154.855 27.4868C155.611 27.6548 156.339 27.9348 157.039 28.3268C157.417 28.5368 157.641 28.8168 157.711 29.1668C157.795 29.5168 157.76 29.8598 157.606 30.1958C157.452 30.5178 157.214 30.7558 156.892 30.9098C156.584 31.0498 156.213 31.0148 155.779 30.8048C154.841 30.3148 153.784 30.0698 152.608 30.0698C151.11 30.0698 149.983 30.4898 149.227 31.3298C148.485 32.1558 148.114 33.3528 148.114 34.9208C148.114 36.5028 148.492 37.6998 149.248 38.5118C150.018 39.3238 151.152 39.7298 152.65 39.7298C153.448 39.7298 154.288 39.6038 155.17 39.3518V36.4538H153.28C152.412 36.4538 151.978 36.0618 151.978 35.2778C151.978 34.4938 152.412 34.1018 153.28 34.1018H156.577C157.431 34.1018 157.858 34.5358 157.858 35.4038V40.2758C157.858 40.6398 157.781 40.9478 157.627 41.1998C157.487 41.4518 157.256 41.6338 156.934 41.7458C156.304 41.9698 155.597 42.1518 154.813 42.2918C154.029 42.4318 153.252 42.5018 152.482 42.5018Z" fill="white"/>
</svg>
