<svg width="49" height="50" viewBox="0 0 49 50" fill="none" xmlns="http://www.w3.org/2000/svg">
<path d="M8.46259 48.8664C16.8154 49.6685 23.6128 49.6783 23.68 49.6783H25.3615C25.4288 49.6783 32.2262 49.6685 40.5789 48.8624C43.5064 48.5799 45.6663 47.4636 46.9997 45.5453C48.9595 42.7242 48.529 38.8981 48.0262 37.2696C45.446 28.8957 43.6754 9.64742 43.1953 3.94764C43.062 2.2586 41.5975 0.957345 39.8433 0.969073H37.6574C36.9058 0.967673 36.2929 1.55042 36.2828 2.2761L36.271 2.66902V2.68607C35.9473 10.1248 29.9553 13.5141 24.5208 13.5141C19.0862 13.5141 13.1001 10.1272 12.7706 2.70068V2.67471L12.7588 2.28097C12.7514 1.55243 12.1362 0.966359 11.3817 0.969073H9.19572C7.44244 0.95863 5.97951 2.25954 5.8462 3.94764C5.36614 9.64742 3.59554 28.8957 1.0153 37.2696C0.510854 38.8981 0.0820757 42.7242 2.04185 45.5453C3.37526 47.4636 5.53513 48.5799 8.46259 48.8664ZM24.5208 15.1378C28.3382 15.1776 32.0007 13.6817 34.6299 11.0088C32.4187 16.3287 28.3361 18.8291 24.5208 18.8291C20.7055 18.8291 16.6237 16.3287 14.4125 11.0105C17.042 13.6823 20.7039 15.1775 24.5208 15.1378ZM2.62616 37.7323C5.1837 29.4396 6.90218 11.4359 7.52264 4.07915C7.58979 3.23545 8.32193 2.58596 9.19824 2.59271H11.084V2.71854V2.74209C11.4464 14.9096 18.2993 20.4527 24.5208 20.4527C30.7423 20.4527 37.6052 14.9031 37.9542 2.71936L37.9575 2.59271H39.8433C40.7196 2.58596 41.4518 3.23545 41.5189 4.07915C42.1394 11.4359 43.8578 29.4396 46.4154 37.7323C46.7559 38.838 47.2738 42.2355 45.6032 44.6409C44.5632 46.1379 42.8162 47.0147 40.4108 47.2469C32.1463 48.0449 25.4279 48.0546 25.3615 48.0546H23.68C23.6136 48.0546 16.9011 48.0457 8.63074 47.2469C6.22538 47.0147 4.47832 46.1379 3.43832 44.6409C1.76776 42.2355 2.28566 38.838 2.62616 37.7323Z" fill="black"/>
</svg>
