<svg width="694" height="751" viewBox="0 0 694 751" fill="none" xmlns="http://www.w3.org/2000/svg">
<path d="M919.021 266.404C977.153 430.637 929.315 643.958 822.134 705.166C714.953 766.375 466.626 771.934 365.5 678C263.769 583.46 154.673 420.675 179.5 302.5C204.933 184.325 445.486 13.691 570.833 0.964495C696.181 -11.762 860.889 102.777 919.021 266.404Z" fill="#F2FDF5"/>
<path d="M666.667 642.928H0V642.595H666.667V642.928Z" fill="#E7E8E5"/>
<path d="M570.963 664.056H599.868V664.389H570.963V664.056Z" fill="#E7E8E5"/>
<path d="M414.077 657.471H459.556V657.137H414.077V657.471Z" fill="#E7E8E5"/>
<path d="M528.781 651.675H588.148V652.008H528.781V651.675Z" fill="#E7E8E5"/>
<path d="M230.685 658.729H215.836V658.396H230.685V658.729Z" fill="#E7E8E5"/>
<path d="M203.964 658.729H152.78V658.396H203.964V658.729Z" fill="#E7E8E5"/>
<path d="M125.336 653.1H88.4088V652.767H125.336V653.1Z" fill="#E7E8E5"/>
<path d="M58.5536 206.333C54.5401 206.333 51.276 209.597 51.276 213.609V575.519C51.276 579.532 54.5401 582.796 58.5536 582.796H316.019C320.031 582.796 323.295 579.532 323.295 575.519V213.609C323.295 209.597 320.031 206.333 316.019 206.333H58.5536ZM316.019 583.129H58.5536C54.3568 583.129 50.9426 579.716 50.9426 575.519V213.609C50.9426 209.415 54.3568 206 58.5536 206H316.019C320.213 206 323.628 209.415 323.628 213.609V575.519C323.628 579.716 320.213 583.129 316.019 583.129Z" fill="#E7E8E5"/>
<path d="M346.949 206.333C342.937 206.333 339.673 209.597 339.673 213.609V575.519C339.673 579.532 342.937 582.796 346.949 582.796H604.413C608.427 582.796 611.692 579.532 611.692 575.519V213.609C611.692 209.597 608.427 206.333 604.413 206.333H346.949ZM604.413 583.129H346.949C342.753 583.129 339.34 579.716 339.34 575.519V213.609C339.34 209.415 342.753 206 346.949 206H604.413C608.611 206 612.025 209.415 612.025 213.609V575.519C612.025 579.716 608.611 583.129 604.413 583.129Z" fill="#E7E8E5"/>
<path d="M153.304 365.565C168.703 365.565 181.185 353.083 181.185 337.685C181.185 322.287 168.703 309.804 153.304 309.804H149.884V365.565H153.304Z" fill="#DADBD8"/>
<path d="M122.004 337.685C122.004 353.083 134.487 365.565 149.884 365.565C165.283 365.565 177.765 353.083 177.765 337.685C177.765 322.287 165.283 309.804 149.884 309.804C134.487 309.804 122.004 322.287 122.004 337.685Z" fill="#F3F2F1"/>
<path d="M148.607 341.189C128.028 341.189 111.285 324.447 111.285 303.868V281.569C111.285 279.633 112.855 278.064 114.79 278.064C116.725 278.064 118.294 279.633 118.294 281.569V303.868C118.294 320.583 131.892 334.18 148.607 334.18C150.541 334.18 152.111 335.749 152.111 337.685C152.111 339.62 150.541 341.189 148.607 341.189Z" fill="#DADBD8"/>
<path d="M83.776 301.2H145.805C150.056 301.2 153.153 297.173 152.065 293.065L146.685 272.751C145.932 269.911 143.363 267.933 140.424 267.933H89.1568C86.2182 267.933 83.6484 269.911 82.8964 272.751L77.5156 293.065C76.427 297.173 79.5254 301.2 83.776 301.2Z" fill="#F3F2F1"/>
<path d="M547.036 365.565C562.435 365.565 574.917 353.083 574.917 337.685C574.917 322.287 562.435 309.804 547.036 309.804H543.616V365.565H547.036Z" fill="#DADBD8"/>
<path d="M515.736 337.685C515.736 353.083 528.219 365.565 543.616 365.565C559.015 365.565 571.497 353.083 571.497 337.685C571.497 322.287 559.015 309.804 543.616 309.804C528.219 309.804 515.736 322.287 515.736 337.685Z" fill="#F3F2F1"/>
<path d="M542.339 341.189C521.76 341.189 505.017 324.447 505.017 303.868V281.569C505.017 279.633 506.587 278.064 508.521 278.064C510.457 278.064 512.027 279.633 512.027 281.569V303.868C512.027 320.583 525.624 334.18 542.339 334.18C544.273 334.18 545.843 335.749 545.843 337.685C545.843 339.62 544.273 341.189 542.339 341.189Z" fill="#DADBD8"/>
<path d="M477.508 301.2H539.536C543.787 301.2 546.885 297.173 545.797 293.065L540.417 272.751C539.664 269.911 537.095 267.933 534.156 267.933H482.888C479.951 267.933 477.38 269.911 476.628 272.751L471.248 293.065C470.159 297.173 473.257 301.2 477.508 301.2Z" fill="#F3F2F1"/>
<path d="M178.641 553.868H198.917V475.295H178.641V553.868Z" fill="#E2E2E0"/>
<path d="M123.668 553.868H190.961L201.124 461.904H133.831L123.668 553.868Z" fill="#EDEDEB"/>
<path d="M116.38 553.868H185.888L196.051 461.904H126.542L116.38 553.868Z" fill="#F3F2F1"/>
<path d="M180.865 546.62L189.427 469.151H131.565L123.004 546.62H180.865Z" fill="white"/>
<path d="M168.916 527.843L169.265 524.685C171.412 505.251 159.277 487.928 143.515 487.928L143.165 491.085C141.017 510.521 153.153 527.843 168.916 527.843Z" fill="#F3F2F1"/>
<path d="M78.7787 642.595H138.564V553.868H78.7787V642.595Z" fill="#E2E2E0"/>
<path d="M84.7921 642.595H78.7787V625.489H91.0973L84.7921 642.595Z" fill="#EDEDEB"/>
<path d="M246.339 642.595H306.124V553.868H246.339V642.595Z" fill="#E2E2E0"/>
<path d="M78.7787 632.098H251.587V553.868H78.7787V632.098Z" fill="#EDEDEB"/>
<path d="M245.573 642.595H251.587V625.489H239.268L245.573 642.595Z" fill="#EDEDEB"/>
<path d="M83.4437 590.328H246.921V558.761H83.4437V590.328Z" fill="#E2E2E0"/>
<path d="M154.28 579.34H176.084C185.555 579.34 194.609 575.445 201.124 568.571H129.241C135.755 575.445 144.809 579.34 154.28 579.34Z" fill="#EDEDEB"/>
<path d="M83.4437 626.996H246.921V595.429H83.4437V626.996Z" fill="#E2E2E0"/>
<path d="M154.28 616.008H176.084C185.555 616.008 194.609 612.115 201.124 605.239H129.241C135.755 612.115 144.809 616.008 154.28 616.008Z" fill="#EDEDEB"/>
<path d="M240.64 550.249H242.184C242.168 547.067 242.191 538.996 242.345 520.5C242.624 486.975 243.156 484.931 243.156 484.931L239.479 500.407C237.148 517.545 240.153 534.767 240.64 550.249Z" fill="#E2E2E0"/>
<path d="M237.587 498.101C232.293 491.792 220.985 489.956 209.407 488.387C204.861 487.769 221.352 498.157 229.412 505.535C235.675 511.267 239.677 512.851 241.397 518.563C242.292 511.44 242.147 503.537 237.587 498.101Z" fill="#E2E2E0"/>
<path d="M244.608 509.376C249.9 503.068 261.209 501.232 272.788 499.661C277.333 499.045 260.843 509.433 252.781 516.811C246.52 522.541 242.516 524.125 240.797 529.837C239.901 522.715 240.047 514.812 244.608 509.376Z" fill="#E2E2E0"/>
<path d="M242.341 483.448C246.309 475.908 256.296 468.809 267.501 466.116C271.901 465.059 257.311 480.04 251.765 489.699C247.457 497.203 241.744 506.017 240.856 512.349C239.516 499.804 238.373 490.988 242.341 483.448Z" fill="#E2E2E0"/>
<path d="M241.873 553.868C237.145 553.868 233.239 551.499 232.967 548.467L232.179 543.285H251.568L250.78 548.467C250.508 551.499 246.601 553.868 241.873 553.868Z" fill="#EDEDEB"/>
<path d="M252.823 545.279H230.924L230.296 539.508H253.449L252.823 545.279Z" fill="#EDEDEB"/>
<path d="M226.053 435.027H439.661V240.185H226.053V435.027Z" fill="#E2E2E0"/>
<path d="M221.247 435.027H437.572V240.185H221.247V435.027Z" fill="#F3F2F1"/>
<path d="M229.875 426.299H428.944V248.913H229.875V426.299Z" fill="#FAFAF9"/>
<path d="M404.517 426.299L326.168 248.913H299.556L377.905 426.299H404.517Z" fill="white"/>
<path d="M370.361 426.299L292.012 248.913H273.688L352.036 426.299H370.361Z" fill="white"/>
<path d="M293.497 426.299H303.792V248.913H293.497V426.299Z" fill="#E2E2E0"/>
<path d="M361.923 426.299H372.217V248.913H361.923V426.299Z" fill="#E2E2E0"/>
<path d="M288.923 431.837H301.936V242.423H288.923V431.837Z" fill="#F3F2F1"/>
<path d="M357.349 431.837H370.361V242.423H357.349V431.837Z" fill="#F3F2F1"/>
<path d="M229.875 426.299H230.791V248.913H229.875V426.299Z" fill="#E2E2E0"/>
<path d="M217.623 228.96H449.044C449.656 228.96 450.156 229.461 450.156 230.073C450.156 230.685 449.656 231.185 449.044 231.185H217.623C217.011 231.185 216.511 230.685 216.511 230.073C216.511 229.461 217.011 228.96 217.623 228.96Z" fill="#E2E2E0"/>
<path d="M439.661 236.305C440.488 236.305 441.164 235.628 441.164 234.803V231.575C441.164 230.749 440.488 230.073 439.661 230.073C438.835 230.073 438.159 230.749 438.159 231.575V234.803C438.159 235.628 438.835 236.305 439.661 236.305Z" fill="#E2E2E0"/>
<path d="M234.405 236.305C235.232 236.305 235.908 235.629 235.908 234.803V231.575C235.908 230.749 235.232 230.073 234.405 230.073C233.58 230.073 232.904 230.749 232.904 231.575V234.803C232.904 235.629 233.58 236.305 234.405 236.305Z" fill="#E2E2E0"/>
<path d="M221.247 299.336H217.979V231.185H232.955C232.921 231.311 232.904 231.44 232.904 231.575V234.803C232.904 235.629 233.58 236.305 234.405 236.305C235.232 236.305 235.908 235.629 235.908 234.803V231.575C235.908 231.44 235.891 231.311 235.857 231.185H323.295V240.185H226.053H221.247V299.336ZM434.147 240.185H339.673V231.185H434.147V240.185ZM339.34 240.185H323.628V231.185H339.34V240.185Z" fill="#E9E9E7"/>
<path d="M323.295 240.185H323.628V231.186H323.295V240.185Z" fill="#DEDFDC"/>
<path d="M339.34 240.185H339.673V231.186H339.34V240.185Z" fill="#DEDFDC"/>
<path d="M434.147 356.149C432.851 355.94 431.391 355.721 429.82 355.517C429.797 355.428 429.773 355.34 429.749 355.251C429.667 354.955 429.397 354.76 429.105 354.76C429.052 354.76 428.997 354.767 428.944 354.78V248.913H370.361V242.424H357.349V248.913H301.936V242.424H288.923V248.913H229.875V299.336H221.247V240.185H226.053H434.147V356.149Z" fill="#E4E4E2"/>
<path d="M357.349 382.656H352.995L352.251 368.217L357.349 379.759V382.656ZM379.964 370.711L372.217 353.172V248.913H370.361H428.944V354.78C428.939 354.781 428.935 354.783 428.929 354.784C428.661 354.857 428.476 355.085 428.444 355.345C426.003 355.053 423.353 354.804 420.685 354.676C416.416 354.471 412.576 354.304 408.849 354.304C405.912 354.304 403.045 354.407 400.088 354.677C397.5 354.913 394.811 355.256 392.301 355.623C392.241 355.592 392.184 355.563 392.125 355.536C391.611 355.292 391.135 355.169 390.703 355.169C390.409 355.169 390.136 355.227 389.884 355.34C389.604 355.467 389.453 355.763 389.499 356.052C384.76 356.811 381.209 357.537 381.209 357.537C381.209 357.537 379.489 358.144 379.964 370.711ZM357.349 319.508L326.168 248.913H301.936H357.349V319.508ZM321.827 299.336H314.284L303.792 275.583V258.503L321.827 299.336ZM288.923 299.336H230.791V248.913H229.875V299.336V248.913H288.923H273.688L288.923 283.407V299.336Z" fill="#E6E6E4"/>
<path d="M380.803 382.656H372.217V353.172L379.964 370.711C380.084 373.875 380.343 377.795 380.803 382.656ZM357.349 379.759L352.251 368.217L349.203 309.069C348.925 303.693 344.344 299.336 338.969 299.336H321.827L303.792 258.503V248.913H301.936H326.168L357.349 319.508V379.759Z" fill="#E8E9E6"/>
<path d="M314.284 299.336H303.792V275.583L314.284 299.336ZM288.923 283.407L273.688 248.913H288.923V283.407Z" fill="#E8E9E6"/>
<path d="M303.792 299.336H301.936V248.913H303.792V258.503V275.583V299.336Z" fill="#DCDDDA"/>
<path d="M372.217 382.656H370.361V248.913H372.217V353.172V382.656Z" fill="#DCDDDA"/>
<path d="M301.936 299.336H288.923V242.424H301.936V248.913V299.336Z" fill="#E4E4E2"/>
<path d="M370.361 382.656H357.349V242.424H370.361V248.913V382.656Z" fill="#E4E4E2"/>
<path d="M229.875 299.336H230.791V248.913H229.875V299.336Z" fill="#DCDDDA"/>
<path d="M434.147 231.185H235.857C235.684 230.547 235.097 230.073 234.405 230.073H434.147V231.185ZM232.955 231.185H217.979V230.073H234.405C233.713 230.073 233.128 230.547 232.955 231.185Z" fill="#DCDDDA"/>
<path d="M234.405 236.305C233.58 236.305 232.904 235.629 232.904 234.803V231.575C232.904 231.44 232.921 231.311 232.955 231.185C233.128 230.547 233.713 230.073 234.405 230.073C235.097 230.073 235.684 230.547 235.857 231.185C235.891 231.311 235.908 231.44 235.908 231.575V234.803C235.908 235.629 235.232 236.305 234.405 236.305Z" fill="#DCDDDA"/>
<path d="M453.715 510.959H416.447C412.484 510.959 409.271 507.747 409.271 503.783V486.533C409.271 482.569 412.484 479.357 416.447 479.357H453.715C457.677 479.357 460.891 482.569 460.891 486.533V503.783C460.891 507.747 457.677 510.959 453.715 510.959Z" fill="#FAFAF9"/>
<path d="M458.481 480.287H411.68C410.349 480.287 409.271 479.208 409.271 477.877V475.929C409.271 474.599 410.349 473.52 411.68 473.52H458.481C459.812 473.52 460.891 474.599 460.891 475.929V477.877C460.891 479.208 459.812 480.287 458.481 480.287Z" fill="#E2E2E0"/>
<path d="M410.031 546.003C410.031 546.003 410.707 568.22 436.6 568.22C462.493 568.22 463.169 546.003 463.169 546.003H410.031Z" fill="#EDEDEB"/>
<path d="M469.072 546.003C469.072 546.003 469.748 568.22 495.641 568.22C521.536 568.22 522.211 546.003 522.211 546.003H469.072Z" fill="#EDEDEB"/>
<path d="M509.397 510.959H458.183C452.736 510.959 448.321 506.544 448.321 501.097V474.905C448.321 469.459 452.736 465.044 458.183 465.044H509.397C514.844 465.044 519.259 469.459 519.259 474.905V501.097C519.259 506.544 514.844 510.959 509.397 510.959Z" fill="#EDEDEB"/>
<path d="M515.948 466.323H451.632C449.803 466.323 448.321 464.84 448.321 463.012V460.333C448.321 458.504 449.803 457.023 451.632 457.023H515.948C517.777 457.023 519.259 458.504 519.259 460.333V463.012C519.259 464.84 517.777 466.323 515.948 466.323Z" fill="#F3F2F1"/>
<path d="M390.528 642.593H397.245V532.403H390.528V642.593Z" fill="#E2E2E0"/>
<path d="M584.557 532.403H548.171V510.959H584.557V532.403Z" fill="#E2E2E0"/>
<path d="M367.263 532.403H548.169V510.959H367.263V532.403Z" fill="#F3F2F1"/>
<path d="M584.557 589.665H548.171V568.221H584.557V589.665Z" fill="#E2E2E0"/>
<path d="M367.263 589.665H548.171V568.221H367.263V589.665Z" fill="#F3F2F1"/>
<path d="M571.436 642.593H578.153V532.403H571.436V642.593Z" fill="#E2E2E0"/>
<path d="M541.452 642.593H548.171V532.403H541.452V642.593Z" fill="#F3F2F1"/>
<path d="M367.263 642.593H373.98V532.403H367.263V642.593Z" fill="#F3F2F1"/>
<path d="M591.852 687.714C591.852 696.052 476.109 702.812 333.333 702.812C190.557 702.812 74.8146 696.052 74.8146 687.714C74.8146 679.376 190.557 672.616 333.333 672.616C476.109 672.616 591.852 679.376 591.852 687.714Z" fill="#F3F2F1"/>
<path d="M347.219 620.057H177.12C171.5 620.057 166.709 615.501 166.42 609.881L151.196 314.481C150.907 308.86 155.228 304.305 160.847 304.305H330.945C336.565 304.305 341.356 308.86 341.647 314.481L356.869 609.881C357.16 615.501 352.839 620.057 347.219 620.057Z" fill="#406FBF"/>
<path d="M347.219 620.057H177.12C173.8 620.057 170.769 618.468 168.785 616.008C167.411 614.304 166.539 612.183 166.42 609.881L153.815 365.291L151.196 314.481C151.187 314.305 151.183 314.131 151.183 313.957C151.177 308.58 155.403 304.305 160.847 304.305H168.055C167.335 305.713 166.967 307.339 167.056 309.069L181.616 591.589C181.893 596.965 186.475 601.322 191.851 601.322H354.532C355.181 601.322 355.812 601.259 356.419 601.138L356.869 609.881C356.879 610.057 356.884 610.232 356.884 610.405C356.888 615.783 352.663 620.057 347.219 620.057Z" fill="#D2FADC"/>
<path d="M314.159 296.003H295.343V294.669H314.159V296.003Z" fill="#406FBF"/>
<path d="M288.825 296.003H281.936V294.669H288.825V296.003Z" fill="#406FBF"/>
<path d="M354.532 601.322H191.851C186.475 601.322 181.893 596.965 181.616 591.589L167.056 309.069C166.78 303.693 170.912 299.336 176.287 299.336H338.969C344.344 299.336 348.925 303.693 349.203 309.069L363.763 591.589C364.04 596.965 359.907 601.322 354.532 601.322Z" fill="#49CA69" fill-opacity="0.5"/>
<path d="M176.287 306.169C175.384 306.169 174.823 306.561 174.511 306.888C174.197 307.219 173.833 307.804 173.88 308.717L188.441 591.239C188.529 592.971 190.123 594.489 191.851 594.489H354.532C355.436 594.489 355.996 594.098 356.307 593.771C356.621 593.441 356.985 592.856 356.939 591.941L342.379 309.421C342.289 307.689 340.696 306.169 338.969 306.169H176.287ZM354.532 594.822H191.851C189.955 594.822 188.205 593.156 188.108 591.256L173.547 308.733C173.495 307.703 173.911 307.036 174.269 306.66C174.625 306.284 175.265 305.836 176.287 305.836H338.969C340.864 305.836 342.613 307.503 342.712 309.404L357.272 591.924C357.324 592.956 356.908 593.622 356.549 594C356.193 594.375 355.555 594.822 354.532 594.822Z" fill="#7EAC89"/>
<path d="M263.991 422.796C236.792 422.796 213.607 400.747 212.204 373.548C210.803 346.349 231.716 324.3 258.915 324.3C286.113 324.3 309.299 346.349 310.7 373.548C312.103 400.747 291.189 422.796 263.991 422.796Z" fill="#4BCB6B"/>
<path d="M301.297 373.548C301.652 380.429 300.239 386.891 297.46 392.528C291.379 404.947 278.653 413.393 263.507 413.393C248.359 413.393 234.763 404.947 227.401 392.528C224.041 386.891 221.963 380.429 221.608 373.548C220.473 351.539 237.391 333.704 259.399 333.704C281.408 333.704 300.163 351.539 301.297 373.548Z" fill="white"/>
<path d="M297.46 392.528C291.379 404.947 278.653 413.393 263.507 413.393C248.359 413.393 234.763 404.947 227.401 392.528C237.087 385.827 248.923 381.915 261.884 381.915C274.844 381.915 287.084 385.827 297.46 392.528Z" fill="#2BA84A"/>
<path d="M278.499 359.917C279.004 369.719 271.468 377.665 261.665 377.665C251.863 377.665 243.507 369.719 243.003 359.917C242.497 350.115 250.033 342.168 259.836 342.168C269.639 342.168 277.995 350.115 278.499 359.917Z" fill="#2BA84A"/>
<path d="M331.217 491.425H203.839C201.564 491.425 199.625 489.581 199.508 487.307L198.544 468.589C198.427 466.315 200.175 464.471 202.449 464.471H329.828C332.103 464.471 334.041 466.315 334.159 468.589L335.124 487.307C335.24 489.581 333.492 491.425 331.217 491.425Z" fill="white"/>
<path d="M292.208 454.192H239.009C236.735 454.192 234.796 452.348 234.679 450.073L234.475 446.099C234.357 443.824 236.105 441.981 238.38 441.981H291.58C293.855 441.981 295.793 443.824 295.911 446.099L296.115 450.073C296.232 452.348 294.483 454.192 292.208 454.192Z" fill="#2BA84A"/>
<path d="M311.992 581.139H232.311C228.437 581.139 225.136 578 224.936 574.126L224.463 564.936C224.263 561.063 227.241 557.923 231.115 557.923H310.796C314.669 557.923 317.971 561.063 318.171 564.936L318.644 574.126C318.844 578 315.865 581.139 311.992 581.139Z" fill="#2BA84A"/>
<path d="M333.543 536.539H206.164C203.889 536.539 201.951 534.695 201.833 532.42L200.868 513.703C200.751 511.428 202.5 509.584 204.775 509.584H332.153C334.428 509.584 336.367 511.428 336.484 513.703L337.448 532.42C337.565 534.695 335.817 536.539 333.543 536.539Z" fill="white"/>
<path d="M220.037 477.948C220.167 480.465 218.231 482.507 215.713 482.507C213.195 482.507 211.048 480.465 210.919 477.948C210.789 475.429 212.725 473.388 215.243 473.388C217.761 473.388 219.907 475.429 220.037 477.948Z" fill="#17282F"/>
<path d="M234.047 477.948C234.176 480.465 232.24 482.507 229.723 482.507C227.204 482.507 225.057 480.465 224.928 477.948C224.799 475.429 226.735 473.388 229.252 473.388C231.771 473.388 233.917 475.429 234.047 477.948Z" fill="#17282F"/>
<path d="M248.056 477.948C248.185 480.465 246.249 482.507 243.732 482.507C241.213 482.507 239.068 480.465 238.937 477.948C238.808 475.429 240.744 473.388 243.263 473.388C245.78 473.388 247.927 475.429 248.056 477.948Z" fill="#17282F"/>
<path d="M262.065 477.948C262.196 480.465 260.26 482.507 257.741 482.507C255.224 482.507 253.077 480.465 252.948 477.948C252.817 475.429 254.753 473.388 257.272 473.388C259.789 473.388 261.936 475.429 262.065 477.948Z" fill="#17282F"/>
<path d="M222.361 523.061C222.492 525.58 220.556 527.621 218.037 527.621C215.52 527.621 213.373 525.58 213.244 523.061C213.113 520.544 215.049 518.503 217.568 518.503C220.085 518.503 222.232 520.544 222.361 523.061Z" fill="#17282F"/>
<path d="M236.372 523.061C236.501 525.58 234.565 527.621 232.047 527.621C229.529 527.621 227.383 525.58 227.253 523.061C227.123 520.544 229.06 518.503 231.577 518.503C234.096 518.503 236.241 520.544 236.372 523.061Z" fill="#17282F"/>
<path d="M250.381 523.061C250.511 525.58 248.575 527.621 246.057 527.621C243.539 527.621 241.392 525.58 241.263 523.061C241.133 520.544 243.069 518.503 245.587 518.503C248.105 518.503 250.252 520.544 250.381 523.061Z" fill="#17282F"/>
<path d="M264.391 523.061C264.52 525.58 262.584 527.621 260.067 527.621C257.548 527.621 255.403 525.58 255.272 523.061C255.143 520.544 257.079 518.503 259.596 518.503C262.115 518.503 264.261 520.544 264.391 523.061Z" fill="#17282F"/>
<path d="M278.4 523.061C278.531 525.58 276.595 527.621 274.076 527.621C271.559 527.621 269.412 525.58 269.281 523.061C269.152 520.544 271.088 518.503 273.607 518.503C276.124 518.503 278.271 520.544 278.4 523.061Z" fill="#17282F"/>
<path d="M292.411 523.061C292.54 525.58 290.604 527.621 288.085 527.621C285.568 527.621 283.421 525.58 283.292 523.061C283.161 520.544 285.097 518.503 287.616 518.503C290.133 518.503 292.28 520.544 292.411 523.061Z" fill="#17282F"/>
<path d="M444.041 368.229C444.376 368.724 444.545 368.996 444.765 369.352L445.361 370.349C445.748 371.009 446.087 371.668 446.428 372.327C447.095 373.645 447.725 374.965 448.289 376.299C449.432 378.965 450.369 381.688 451.18 384.429C452.823 389.909 453.827 395.525 454.341 401.143L454.445 402.196C454.464 402.347 454.477 402.584 454.488 402.832L454.517 403.549C454.535 404.497 454.488 405.435 454.356 406.321C454.105 408.109 453.624 409.76 453.033 411.287C451.835 414.327 450.188 416.909 448.421 419.26C444.805 423.941 440.7 427.688 436.009 431.009L432.336 426.708C435.632 422.896 438.825 418.672 441.191 414.455C442.397 412.352 443.32 410.183 443.893 408.161C444.163 407.151 444.308 406.179 444.331 405.303C444.361 404.86 444.329 404.451 444.287 404.063L444.245 403.779C444.236 403.692 444.225 403.595 444.191 403.415L444.024 402.476C443.152 397.472 441.961 392.555 440.4 387.805C439.633 385.424 438.685 383.123 437.724 380.861C437.248 379.727 436.721 378.627 436.183 377.553L435.356 375.987L434.945 375.244L434.607 374.661L444.041 368.229Z" fill="#892F38"/>
<path d="M431.595 431.095L436.423 441.288L440.252 432.668C440.252 432.668 436.859 425.201 432.267 425.885L431.595 431.095Z" fill="#872F37"/>
<path d="M439.883 441.793L443.716 435.508L440.252 432.668L436.423 441.288L439.883 441.793Z" fill="#872F37"/>
<path d="M420.38 676.241C418.435 676.631 416.973 676.563 416.408 676.047C416.167 675.828 416.079 675.52 416.136 675.107C416.168 674.883 416.271 674.809 416.356 674.771C417.043 674.456 418.997 675.405 420.38 676.241ZM418.179 677.02C419.211 677.02 420.339 676.807 421.128 676.619L421.328 676.408L421.212 676.141C420.831 675.889 417.437 673.7 416.139 674.288C415.933 674.381 415.675 674.585 415.612 675.032C415.529 675.624 415.676 676.097 416.051 676.439C416.527 676.872 417.32 677.02 418.179 677.02Z" fill="#406FBF"/>
<path d="M419.167 672.1C419.384 672.1 419.576 672.176 419.752 672.332C420.476 672.973 420.725 674.779 420.787 675.848C419.724 675.001 418.457 673.191 418.611 672.422C418.636 672.297 418.708 672.148 419.047 672.107L419.167 672.1ZM421.067 676.627L421.2 676.591L421.332 676.363C421.332 676.226 421.316 673.01 420.103 671.936C419.78 671.649 419.401 671.529 418.983 671.583C418.32 671.663 418.14 672.079 418.092 672.32C417.84 673.579 419.871 675.988 420.937 676.592L421.067 676.627Z" fill="#406FBF"/>
<path d="M399.379 672.424C399.973 671.78 402.611 671.607 404.592 671.639C402.515 673.045 400.8 673.717 399.931 673.446C399.625 673.352 399.42 673.141 399.3 672.805C399.253 672.673 399.265 672.571 399.339 672.471L399.379 672.424ZM405.587 671.579L405.647 671.324L405.405 671.135C404.852 671.108 400.06 670.909 398.98 672.076L398.915 672.155C398.735 672.397 398.695 672.684 398.801 672.981C398.979 673.48 399.305 673.807 399.773 673.952C401.325 674.434 404.057 672.693 405.548 671.613L405.587 671.579Z" fill="#406FBF"/>
<path d="M400.799 668.905L401.052 668.712C401.4 668.508 401.765 668.461 402.168 668.569C403.327 668.883 404.417 670.364 404.9 671.105C403.324 670.926 400.908 669.951 400.704 669.209C400.691 669.165 400.661 669.055 400.799 668.905ZM405.587 671.579L405.621 671.532L405.623 671.269C405.56 671.159 404.071 668.534 402.305 668.059C401.767 667.914 401.253 667.98 400.784 668.256C400.149 668.628 400.113 669.057 400.193 669.349C400.535 670.585 403.933 671.673 405.395 671.664L405.587 671.579Z" fill="#406FBF"/>
<path d="M420.265 329.169C418.967 335.797 416.048 350.253 420.685 354.676C420.685 354.676 418.873 361.399 406.559 361.399C393.019 361.399 400.088 354.677 400.088 354.677C407.479 352.912 407.288 347.429 406 342.28L420.265 329.169Z" fill="#872F37"/>
<path d="M397.7 313.54L397.937 313.484C398.197 313.353 398.304 313.036 398.173 312.773C396.863 310.157 394.439 309.853 394.336 309.843C394.047 309.807 393.784 310.017 393.751 310.308C393.717 310.597 393.925 310.859 394.213 310.893C394.293 310.903 396.181 311.16 397.227 313.248C397.32 313.433 397.507 313.54 397.7 313.54Z" fill="#17282F"/>
<path d="M393.663 319.332C393.663 319.332 391.669 322.993 389.769 324.644C390.813 325.891 392.883 325.636 392.883 325.636L393.663 319.332Z" fill="#6B1317"/>
<path d="M394.653 317.895C394.543 318.789 393.979 319.455 393.395 319.383C392.809 319.311 392.425 318.527 392.536 317.633C392.647 316.739 393.211 316.073 393.795 316.145C394.379 316.217 394.763 317.001 394.653 317.895Z" fill="#17282F"/>
<path d="M394.047 316.227L391.976 315.343C391.976 315.343 392.871 317.156 394.047 316.227Z" fill="#17282F"/>
<path d="M417.355 669.045L406.479 671.585L399.869 646.569L410.745 644.029L417.355 669.045Z" fill="#872F37"/>
<path d="M434.055 676.361H422.887L423.763 650.498H434.931L434.055 676.361Z" fill="#872F37"/>
<path d="M422.001 675.069H434.549C435.005 675.069 435.376 675.387 435.44 675.832L436.869 685.759C437.019 686.789 436.132 687.764 435.08 687.745C430.705 687.669 428.597 687.414 423.079 687.414C419.684 687.414 414.725 687.765 410.037 687.765C405.452 687.765 405.1 683.131 407.052 682.71C415.804 680.828 417.187 678.232 420.135 675.756C420.667 675.309 421.333 675.069 422.001 675.069Z" fill="#17282F"/>
<path d="M405.515 669.919L416.913 664.676C417.328 664.485 417.797 664.617 418.043 664.996L423.489 673.417C424.055 674.291 423.657 675.547 422.693 675.971C418.688 677.729 416.665 678.377 411.652 680.684C408.568 682.103 402.337 685.357 398.079 687.316C393.913 689.232 391.655 685.168 393.253 683.972C400.417 678.604 402.463 674.805 404.105 671.324C404.403 670.696 404.908 670.198 405.515 669.919Z" fill="#17282F"/>
<path d="M414.153 656.931L412.32 649.989L412.325 649.987L414.159 656.929L414.153 656.931Z" fill="#C3C5C2"/>
<path d="M403.412 659.977L401.783 653.807L412.32 649.989L414.153 656.931L403.412 659.977Z" fill="#682329"/>
<path d="M434.487 663.837H434.479L434.567 661.256H434.573L434.487 663.837Z" fill="#C3C5C2"/>
<path d="M434.479 663.837H423.313L423.4 661.256H434.567L434.479 663.837Z" fill="#682329"/>
<path d="M439.947 357.213C444.585 358.231 449.541 374.921 449.541 374.921L436.423 388.871C436.423 388.871 425.539 373.195 427.756 367.429C430.065 361.427 434.463 356.012 439.947 357.213Z" fill="#17282F"/>
<path d="M435.379 387.316C435.025 386.769 434.599 386.099 434.128 385.335C434.129 385.331 434.129 385.328 434.131 385.325C434.6 386.089 435.027 386.759 435.381 387.307C435.381 387.309 435.38 387.313 435.379 387.316Z" fill="#858889"/>
<path d="M435.381 387.307C435.027 386.759 434.6 386.089 434.131 385.325C434.672 382.111 435.321 378.623 436.095 374.792C436.925 379.323 436.12 384.347 435.381 387.307Z" fill="#0C1418"/>
<path d="M381.209 357.537C381.209 357.537 375.889 359.412 386.547 424.944C404.545 424.944 423.147 424.944 431.905 424.944C431.144 406.484 431.123 395.1 439.947 357.213C439.947 357.213 430.443 355.147 420.685 354.676C413.052 354.308 406.799 354.064 400.088 354.677C391.241 355.484 381.209 357.537 381.209 357.537Z" fill="#17282F"/>
<path d="M381.86 392.448C381.424 388.877 381.083 385.679 380.816 382.805C381.091 385.681 381.433 388.881 381.86 392.448Z" fill="#8C8F8F"/>
<path d="M381.992 393.516C381.948 393.156 381.904 392.8 381.86 392.448C381.433 388.881 381.091 385.681 380.816 382.805C380.813 382.767 380.809 382.728 380.805 382.689C382.632 380.023 385.032 377.036 387.632 375.104C388.744 380.656 385.707 390.171 381.992 393.516Z" fill="#0C1418"/>
<path d="M385.647 372.755C383.179 378.988 380.461 384.912 377.403 390.828C374.349 396.736 371.089 402.541 366.756 408.155L365.903 409.205L365.477 409.728C365.331 409.905 365.216 410.06 364.98 410.303C364.156 411.212 363.263 411.992 362.347 412.645C360.511 413.955 358.612 414.788 356.772 415.429C353.087 416.669 349.525 417.109 346.052 417.317C339.083 417.6 332.489 416.955 325.84 415.523L326.58 409.916C329.644 409.932 332.859 409.863 335.957 409.668C339.072 409.505 342.155 409.172 345.112 408.644C348.063 408.149 350.917 407.399 353.297 406.363C354.472 405.836 355.493 405.205 356.244 404.567C356.623 404.248 356.919 403.923 357.156 403.612C357.207 403.567 357.325 403.391 357.428 403.248L357.739 402.808L358.363 401.932C361.648 397.072 364.532 391.425 367.287 385.781C369.992 380.112 372.603 374.232 375.052 368.495L385.647 372.755Z" fill="#892F38"/>
<path d="M381.209 357.537C375.659 358.891 368.828 374.131 368.828 374.131L380.349 391.057C380.349 391.057 395.689 371.747 393.865 365.845C391.965 359.7 387.944 355.896 381.209 357.537Z" fill="#17282F"/>
<path d="M329.775 410.747L320.164 406.309L319.199 415.863C319.199 415.863 327.231 418.227 331.191 415.805L329.775 410.747Z" fill="#872F37"/>
<path d="M314.408 405.344L313.491 412.619L319.199 415.863L320.164 406.309L314.408 405.344Z" fill="#872F37"/>
<path d="M425.092 318.545C423.059 329.441 422.431 334.097 416.188 339.047C406.799 346.491 393.859 341.612 392.596 330.328C391.457 320.171 394.973 304.057 406.261 301.019C417.383 298.024 427.124 307.649 425.092 318.545Z" fill="#872F37"/>
<path d="M401.157 320.84C400.535 326.396 400.295 340.832 412.5 341.285C427.459 341.841 431.936 329.063 430.603 323.952C438.38 317.619 439.505 306.731 430.76 298.396C422.015 290.063 402.76 294.721 397.38 302.84C390.713 312.904 401.157 320.84 401.157 320.84Z" fill="#17282F"/>
<path d="M416.135 301.633C415.412 295.773 415.973 291.729 421.455 291.729C426.936 291.729 434.436 293.721 437.185 299.336C439.936 304.952 440.157 313.729 432.491 312.84C424.824 311.952 417 308.649 416.135 301.633Z" fill="#4BCB6B"/>
<path d="M424.636 300.227C423.331 293.235 429.557 273.564 444.751 272.285C451.788 271.693 455.047 279.267 451.361 280.515C458.009 280.433 462.295 289.245 456.077 290.573C460.993 293.713 459.769 300.173 452.769 303.34C447.608 305.676 426.444 309.899 424.636 300.227Z" fill="#17282F"/>
<path d="M440.867 307.732C435.979 307.733 430.867 307.015 427.7 304.893C425.777 303.605 424.723 301.899 424.565 299.819C424.552 299.635 424.689 299.475 424.872 299.461C425.067 299.447 425.216 299.585 425.231 299.768C425.371 301.633 426.327 303.172 428.071 304.34C434.104 308.38 448.049 307.072 452.419 305.645C456.177 304.42 458.723 302.043 459.228 299.287C459.599 297.265 458.805 295.351 456.996 293.893C456.852 293.777 456.829 293.567 456.944 293.424C457.06 293.281 457.271 293.259 457.413 293.373C459.393 294.968 460.293 297.167 459.884 299.407C459.333 302.407 456.62 304.976 452.625 306.28C450.337 307.027 445.712 307.732 440.867 307.732Z" fill="#17282F"/>
<path d="M397.756 319.368C396.416 321.223 396.032 323.528 396.327 325.388C396.771 328.184 399.497 328.369 401.471 326.577C403.248 324.964 405.157 321.564 403.703 319.245C402.269 316.961 399.287 317.248 397.756 319.368Z" fill="#872F37"/>
<path d="M398.525 424.944C398.525 424.944 405.007 501.599 411.732 544.8C417.164 579.693 421.447 661.256 421.447 661.256H436.677C436.677 661.256 442.093 582.131 439.336 547.619C432.36 460.288 447.919 453.175 431.905 424.944H398.525Z" fill="#2BA84A"/>
<path d="M408.247 519.552C408.069 518.135 407.892 516.707 407.717 515.269V515.268C407.893 516.707 408.069 518.133 408.247 519.552Z" fill="#858889"/>
<path d="M409.431 528.716C409.032 525.729 408.636 522.667 408.247 519.552C408.069 518.133 407.893 516.707 407.717 515.268C412.179 502.26 416.085 491.699 419.179 482.072C418.359 500.699 414.124 516.867 409.431 528.716Z" fill="#369C4F"/>
<path d="M387.865 424.46C387.865 424.46 373.804 508.179 371.583 545.915C377.105 580.809 399.693 654.563 399.693 654.563L413.547 649.545C413.547 649.545 405.883 569.119 397.503 547.1C416.263 483.937 430.051 467.973 426.039 424.944C416.471 424.944 387.865 424.46 387.865 424.46Z" fill="#2BA84A"/>
<path d="M397.835 658.248L416.555 653.165L415.495 645.704L395.451 651.124L397.835 658.248Z" fill="#17282F"/>
<path d="M419.363 661.557H438.761L439.78 654.752L419.252 654.057L419.363 661.557Z" fill="#17282F"/>
<path d="M432.585 422.283L434.631 426.343C434.789 426.657 434.416 426.979 433.892 426.979H386.323C385.913 426.979 385.575 426.779 385.549 426.521L385.14 422.461C385.112 422.18 385.465 421.941 385.913 421.941H431.847C432.184 421.941 432.483 422.08 432.585 422.283Z" fill="#406FBF"/>
<path d="M408.048 426.979H386.323C385.913 426.979 385.575 426.779 385.549 426.521L385.14 422.461C385.139 422.449 385.139 422.439 385.139 422.428C385.139 422.161 385.484 421.941 385.913 421.941H405.227C405.901 423.829 406.825 425.532 408.048 426.979ZM434.509 426.785C434.559 426.716 434.608 426.645 434.656 426.575C434.635 426.652 434.583 426.724 434.509 426.785Z" fill="#385B41"/>
<path d="M426.416 427.419H427.645C427.891 427.419 428.077 427.292 428.061 427.137L427.484 421.863C427.467 421.708 427.253 421.583 427.008 421.583H425.777C425.532 421.583 425.345 421.708 425.363 421.863L425.94 427.137C425.956 427.292 426.171 427.419 426.416 427.419Z" fill="#406FBF"/>
<path d="M409.903 388.563C409.603 388.563 409.337 388.361 409.26 388.071C404.909 371.999 395.868 358.78 391.556 356.741C391.072 356.513 390.672 356.448 390.432 356.556C390.093 356.708 389.7 356.556 389.549 356.221C389.399 355.887 389.548 355.491 389.884 355.34C390.505 355.059 391.259 355.127 392.125 355.536C396.728 357.712 405.848 370.779 410.411 387.227C413.68 387.185 418.724 386.777 419.941 386.675C421.465 384.865 432.645 370.889 428.463 355.603C428.365 355.248 428.575 354.88 428.929 354.784C429.281 354.687 429.651 354.895 429.749 355.251C434.405 372.267 420.903 387.608 420.765 387.761C420.652 387.888 420.496 387.965 420.327 387.98C420.26 387.987 413.611 388.563 409.903 388.563Z" fill="black"/>
<path d="M431.989 397.988C424.721 384.364 421.749 383.412 420.449 379.032C420.449 379.032 421.62 375.725 424.593 372.377C423.701 372.129 421.815 371.752 420.631 371.524C420.765 370.927 420.903 370.337 421.037 369.772C420.056 369.5 418.016 369.781 416.973 369.956L416.927 368.611C416.927 368.611 413.241 367.872 411.76 368.283C411.908 368.903 412.057 369.548 412.207 370.203C410.908 370.453 408.839 370.867 407.861 371.139C410.692 374.327 411.713 377.731 411.933 378.571C408.02 385.297 392.788 428.584 417.555 431.839C442.337 435.096 439.256 411.613 431.989 397.988Z" fill="#406FBF"/>
<path d="M421.956 432.145C420.597 432.145 419.132 432.047 417.555 431.839C406.997 430.452 403.708 421.791 403.712 411.787C403.717 398.324 409.688 382.431 411.933 378.571C411.713 377.731 410.692 374.327 407.861 371.139C408.839 370.867 410.908 370.453 412.207 370.203C412.057 369.548 411.908 368.903 411.76 368.283C412.083 368.193 412.509 368.159 412.98 368.159C414.671 368.159 416.927 368.611 416.927 368.611L416.973 369.956C417.704 369.833 418.923 369.659 419.925 369.659C420.353 369.659 420.743 369.691 421.037 369.772C420.903 370.337 420.765 370.927 420.631 371.524C421.815 371.752 423.701 372.129 424.593 372.377C421.62 375.725 420.449 379.032 420.449 379.032C421.749 383.412 424.721 384.364 431.989 397.988C434.932 403.508 437.189 410.644 437.185 416.965C437.181 425.256 433.288 432.145 421.956 432.145Z" fill="#4BCB6B"/>
<path d="M411.009 377.283C410.827 377.613 410.843 378.867 410.816 379.367C410.788 379.867 412.121 380.2 413.621 380.339C415.121 380.477 421.316 380.727 421.121 380.033C420.927 379.339 421.427 378.393 421.455 377.811C421.483 377.227 418.983 377.2 416.899 377.283C414.816 377.367 411.427 376.533 411.009 377.283Z" fill="#385B41"/>
<path d="M396.597 427.419H397.828C398.072 427.419 398.259 427.292 398.243 427.137L397.665 421.863C397.648 421.708 397.435 421.583 397.189 421.583H395.959C395.715 421.583 395.528 421.708 395.544 421.863L396.121 427.137C396.139 427.292 396.352 427.419 396.597 427.419Z" fill="#2BA84A"/>
</svg>
