<svg width="699" height="751" viewBox="0 0 699 751" fill="none" xmlns="http://www.w3.org/2000/svg">
<path d="M-218.021 266.404C-276.154 430.637 -228.316 643.958 -121.135 705.166C-13.9532 766.375 234.374 771.934 335.5 678C437.231 583.46 546.327 420.675 521.5 302.5C496.067 184.325 255.514 13.691 130.166 0.964495C4.81873 -11.762 -159.889 102.777 -218.021 266.404Z" fill="#F2FDF5"/>
<path d="M32.3334 642.928H699V642.595H32.3334V642.928Z" fill="#E7E8E5"/>
<path d="M128.037 664.056H99.1318V664.389H128.037V664.056Z" fill="#E7E8E5"/>
<path d="M284.923 657.471H239.444V657.137H284.923V657.471Z" fill="#E7E8E5"/>
<path d="M170.219 651.674H110.852V652.008H170.219V651.674Z" fill="#E7E8E5"/>
<path d="M468.315 658.729H483.164V658.396H468.315V658.729Z" fill="#E7E8E5"/>
<path d="M495.036 658.729H546.22V658.396H495.036V658.729Z" fill="#E7E8E5"/>
<path d="M573.664 653.1H610.591V652.767H573.664V653.1Z" fill="#E7E8E5"/>
<path d="M640.446 206.334C644.46 206.334 647.724 209.598 647.724 213.61V575.519C647.724 579.532 644.46 582.796 640.446 582.796H382.981C378.969 582.796 375.705 579.532 375.705 575.519V213.61C375.705 209.598 378.969 206.334 382.981 206.334H640.446ZM382.981 583.129H640.446C644.643 583.129 648.057 579.716 648.057 575.519V213.61C648.057 209.415 644.643 206 640.446 206H382.981C378.786 206 375.372 209.415 375.372 213.61V575.519C375.372 579.716 378.786 583.129 382.981 583.129Z" fill="#E7E8E5"/>
<path d="M352.051 206.334C356.063 206.334 359.327 209.598 359.327 213.61V575.519C359.327 579.532 356.063 582.796 352.051 582.796H94.5868C90.5735 582.796 87.3082 579.532 87.3082 575.519V213.61C87.3082 209.598 90.5735 206.334 94.5868 206.334H352.051ZM94.5868 583.129H352.051C356.247 583.129 359.66 579.716 359.66 575.519V213.61C359.66 209.415 356.247 206 352.051 206H94.5868C90.3895 206 86.9749 209.415 86.9749 213.61V575.519C86.9749 579.716 90.3895 583.129 94.5868 583.129Z" fill="#E7E8E5"/>
<path d="M545.696 365.565C530.298 365.565 517.815 353.083 517.815 337.685C517.815 322.287 530.298 309.804 545.696 309.804H549.116V365.565H545.696Z" fill="#DADBD8"/>
<path d="M576.997 337.685C576.997 353.083 564.514 365.565 549.116 365.565C533.718 365.565 521.235 353.083 521.235 337.685C521.235 322.287 533.718 309.804 549.116 309.804C564.514 309.804 576.997 322.287 576.997 337.685Z" fill="#F3F2F1"/>
<path d="M550.393 341.189C570.972 341.189 587.714 324.447 587.714 303.868V281.569C587.714 279.633 586.145 278.064 584.21 278.064C582.275 278.064 580.706 279.633 580.706 281.569V303.868C580.706 320.583 567.108 334.18 550.393 334.18C548.458 334.18 546.889 335.749 546.889 337.685C546.889 339.62 548.458 341.189 550.393 341.189Z" fill="#DADBD8"/>
<path d="M615.224 301.2H553.194C548.944 301.2 545.846 297.174 546.934 293.066L552.314 272.751C553.068 269.911 555.637 267.934 558.576 267.934H609.843C612.782 267.934 615.351 269.911 616.103 272.751L621.484 293.066C622.573 297.174 619.474 301.2 615.224 301.2Z" fill="#F3F2F1"/>
<path d="M151.964 365.565C136.565 365.565 124.082 353.083 124.082 337.685C124.082 322.287 136.565 309.804 151.964 309.804H155.384V365.565H151.964Z" fill="#DADBD8"/>
<path d="M183.264 337.685C183.264 353.083 170.781 365.565 155.384 365.565C139.985 365.565 127.503 353.083 127.503 337.685C127.503 322.287 139.985 309.804 155.384 309.804C170.781 309.804 183.264 322.287 183.264 337.685Z" fill="#F3F2F1"/>
<path d="M156.661 341.189C177.24 341.189 193.982 324.447 193.982 303.868V281.569C193.982 279.633 192.413 278.064 190.478 278.064C188.542 278.064 186.973 279.633 186.973 281.569V303.868C186.973 320.583 173.376 334.18 156.661 334.18C154.726 334.18 153.157 335.749 153.157 337.685C153.157 339.62 154.726 341.189 156.661 341.189Z" fill="#DADBD8"/>
<path d="M221.492 301.2H159.464C155.213 301.2 152.115 297.174 153.203 293.066L158.583 272.751C159.336 269.911 161.905 267.934 164.844 267.934H216.112C219.049 267.934 221.62 269.911 222.372 272.751L227.752 293.066C228.841 297.174 225.743 301.2 221.492 301.2Z" fill="#F3F2F1"/>
<path d="M520.359 553.868H500.083V475.295H520.359V553.868Z" fill="#E2E2E0"/>
<path d="M575.332 553.868H508.038L497.876 461.904H565.169L575.332 553.868Z" fill="#EDEDEB"/>
<path d="M582.62 553.868H513.112L502.949 461.904H572.458L582.62 553.868Z" fill="#F3F2F1"/>
<path d="M518.135 546.62L509.574 469.151H567.436L575.997 546.62H518.135Z" fill="white"/>
<path d="M530.084 527.843L529.735 524.685C527.588 505.251 539.723 487.928 555.485 487.928L555.835 491.085C557.983 510.521 545.847 527.843 530.084 527.843Z" fill="#F3F2F1"/>
<path d="M620.221 642.595H560.436V553.868H620.221V642.595Z" fill="#E2E2E0"/>
<path d="M614.208 642.595H620.221V625.489H607.903L614.208 642.595Z" fill="#EDEDEB"/>
<path d="M452.661 642.595H392.876V553.868H452.661V642.595Z" fill="#E2E2E0"/>
<path d="M620.221 632.099H447.413V553.868H620.221V632.099Z" fill="#EDEDEB"/>
<path d="M453.427 642.595H447.413V625.489H459.732L453.427 642.595Z" fill="#EDEDEB"/>
<path d="M615.556 590.328H452.079V558.761H615.556V590.328Z" fill="#E2E2E0"/>
<path d="M544.72 579.34H522.916C513.445 579.34 504.391 575.446 497.876 568.571H569.759C563.245 575.446 554.191 579.34 544.72 579.34Z" fill="#EDEDEB"/>
<path d="M615.556 626.996H452.079V595.429H615.556V626.996Z" fill="#E2E2E0"/>
<path d="M544.72 616.008H522.916C513.445 616.008 504.391 612.115 497.876 605.238H569.759C563.245 612.115 554.191 616.008 544.72 616.008Z" fill="#EDEDEB"/>
<path d="M458.36 550.25H456.816C456.832 547.067 456.809 538.996 456.655 520.5C456.376 486.975 455.844 484.931 455.844 484.931L459.521 500.407C461.852 517.546 458.847 534.767 458.36 550.25Z" fill="#E2E2E0"/>
<path d="M461.413 498.101C466.707 491.792 478.015 489.956 489.593 488.387C494.139 487.769 477.648 498.157 469.588 505.535C463.325 511.267 459.323 512.851 457.603 518.562C456.708 511.44 456.853 503.537 461.413 498.101Z" fill="#E2E2E0"/>
<path d="M454.392 509.376C449.1 503.068 437.791 501.232 426.212 499.661C421.667 499.045 438.157 509.433 446.219 516.811C452.48 522.541 456.484 524.125 458.203 529.837C459.099 522.715 458.953 514.812 454.392 509.376Z" fill="#E2E2E0"/>
<path d="M456.659 483.448C452.691 475.908 442.704 468.809 431.499 466.116C427.099 465.058 441.689 480.04 447.235 489.698C451.543 497.202 457.256 506.017 458.144 512.349C459.484 499.804 460.627 490.988 456.659 483.448Z" fill="#E2E2E0"/>
<path d="M457.127 553.868C461.855 553.868 465.761 551.499 466.033 548.467L466.821 543.285H447.432L448.22 548.467C448.492 551.499 452.399 553.868 457.127 553.868Z" fill="#EDEDEB"/>
<path d="M446.177 545.279H468.076L468.704 539.508H445.551L446.177 545.279Z" fill="#EDEDEB"/>
<path d="M472.947 435.027H259.339V240.186H472.947V435.027Z" fill="#E2E2E0"/>
<path d="M477.753 435.027H261.428V240.186H477.753V435.027Z" fill="#F3F2F1"/>
<path d="M469.125 426.299H270.056V248.914H469.125V426.299Z" fill="#FAFAF9"/>
<path d="M294.483 426.299L372.832 248.914H399.444L321.095 426.299H294.483Z" fill="white"/>
<path d="M328.639 426.299L406.988 248.914H425.312L346.964 426.299H328.639Z" fill="white"/>
<path d="M405.503 426.299H395.208V248.914H405.503V426.299Z" fill="#E2E2E0"/>
<path d="M337.077 426.299H326.783V248.914H337.077V426.299Z" fill="#E2E2E0"/>
<path d="M410.077 431.837H397.064V242.423H410.077V431.837Z" fill="#F3F2F1"/>
<path d="M341.65 431.837H328.638V242.423H341.65V431.837Z" fill="#F3F2F1"/>
<path d="M469.125 426.299H468.209V248.914H469.125V426.299Z" fill="#E2E2E0"/>
<path d="M481.377 228.96H249.956C249.344 228.96 248.844 229.462 248.844 230.074C248.844 230.686 249.344 231.186 249.956 231.186H481.377C481.989 231.186 482.489 230.686 482.489 230.074C482.489 229.462 481.989 228.96 481.377 228.96Z" fill="#E2E2E0"/>
<path d="M259.339 236.305C258.512 236.305 257.836 235.628 257.836 234.803V231.575C257.836 230.749 258.512 230.073 259.339 230.073C260.165 230.073 260.841 230.749 260.841 231.575V234.803C260.841 235.628 260.165 236.305 259.339 236.305Z" fill="#E2E2E0"/>
<path d="M464.595 236.305C463.768 236.305 463.092 235.629 463.092 234.803V231.575C463.092 230.749 463.768 230.073 464.595 230.073C465.42 230.073 466.096 230.749 466.096 231.575V234.803C466.096 235.629 465.42 236.305 464.595 236.305Z" fill="#E2E2E0"/>
<path d="M477.753 299.336H481.021V231.185H466.045C466.079 231.311 466.096 231.44 466.096 231.575V234.803C466.096 235.629 465.42 236.305 464.595 236.305C463.768 236.305 463.092 235.629 463.092 234.803V231.575C463.092 231.44 463.109 231.311 463.143 231.185H375.705V240.185H472.947H477.753V299.336ZM264.853 240.185H359.327V231.185H264.853V240.185ZM359.66 240.185H375.372V231.185H359.66V240.185Z" fill="#E9E9E7"/>
<path d="M375.706 240.186H375.372V231.187H375.706V240.186Z" fill="#DEDFDC"/>
<path d="M359.66 240.186H359.327V231.187H359.66V240.186Z" fill="#DEDFDC"/>
<path d="M264.853 356.149C266.149 355.94 267.609 355.721 269.18 355.517C269.203 355.428 269.227 355.34 269.251 355.251C269.333 354.955 269.603 354.76 269.895 354.76C269.948 354.76 270.003 354.767 270.056 354.78V248.913H328.639V242.424H341.651V248.913H397.064V242.424H410.077V248.913H469.125V299.336H477.753V240.185H472.947H264.853V356.149Z" fill="#E4E4E2"/>
<path d="M341.651 382.656H346.005L346.75 368.218L341.651 379.759V382.656ZM319.036 370.711L326.783 353.172V248.914H328.639H270.056V354.78C270.061 354.782 270.065 354.783 270.071 354.784C270.339 354.858 270.524 355.086 270.556 355.346C272.997 355.054 275.647 354.804 278.315 354.676C282.584 354.471 286.424 354.304 290.151 354.304C293.088 354.304 295.955 354.407 298.912 354.678C301.5 354.914 304.189 355.256 306.699 355.623C306.759 355.592 306.816 355.563 306.875 355.536C307.389 355.292 307.865 355.17 308.297 355.17C308.591 355.17 308.864 355.227 309.116 355.34C309.396 355.467 309.547 355.763 309.501 356.052C314.24 356.811 317.791 357.538 317.791 357.538C317.791 357.538 319.511 358.144 319.036 370.711ZM341.651 319.508L372.832 248.914H397.064H341.651V319.508ZM377.174 299.336H384.716L395.208 275.583V258.503L377.174 299.336ZM410.078 299.336H468.209V248.914H469.125V299.336V248.914H410.078H425.312L410.078 283.407V299.336Z" fill="#E6E6E4"/>
<path d="M318.197 382.656H326.783V353.172L319.036 370.711C318.916 373.875 318.657 377.795 318.197 382.656ZM341.651 379.759L346.749 368.218L349.797 309.07C350.075 303.694 354.656 299.336 360.031 299.336H377.173L395.208 258.503V248.914H397.064H372.832L341.651 319.508V379.759Z" fill="#E8E9E6"/>
<path d="M384.716 299.336H395.208V275.583L384.716 299.336ZM410.077 283.407L425.312 248.913H410.077V283.407Z" fill="#E8E9E6"/>
<path d="M395.208 299.336H397.064V248.913H395.208V258.503V275.583V299.336Z" fill="#DCDDDA"/>
<path d="M326.783 382.656H328.639V248.914H326.783V353.172V382.656Z" fill="#DCDDDA"/>
<path d="M397.064 299.336H410.077V242.424H397.064V248.913V299.336Z" fill="#E4E4E2"/>
<path d="M328.638 382.656H341.65V242.424H328.638V248.914V382.656Z" fill="#E4E4E2"/>
<path d="M469.125 299.336H468.209V248.913H469.125V299.336Z" fill="#DCDDDA"/>
<path d="M264.853 231.186H463.143C463.316 230.547 463.903 230.074 464.595 230.074H264.853V231.186ZM466.045 231.186H481.021V230.074H464.595C465.287 230.074 465.872 230.547 466.045 231.186Z" fill="#DCDDDA"/>
<path d="M464.595 236.305C465.42 236.305 466.096 235.629 466.096 234.803V231.575C466.096 231.44 466.079 231.311 466.046 231.185C465.872 230.547 465.287 230.073 464.595 230.073C463.903 230.073 463.316 230.547 463.143 231.185C463.11 231.311 463.092 231.44 463.092 231.575V234.803C463.092 235.629 463.768 236.305 464.595 236.305Z" fill="#DCDDDA"/>
<path d="M245.285 510.958H282.553C286.516 510.958 289.729 507.747 289.729 503.783V486.533C289.729 482.569 286.516 479.357 282.553 479.357H245.285C241.323 479.357 238.11 482.569 238.11 486.533V503.783C238.11 507.747 241.323 510.958 245.285 510.958Z" fill="#FAFAF9"/>
<path d="M240.519 480.287H287.32C288.651 480.287 289.729 479.208 289.729 477.877V475.929C289.729 474.599 288.651 473.52 287.32 473.52H240.519C239.188 473.52 238.11 474.599 238.11 475.929V477.877C238.11 479.208 239.188 480.287 240.519 480.287Z" fill="#E2E2E0"/>
<path d="M288.969 546.003C288.969 546.003 288.293 568.22 262.4 568.22C236.507 568.22 235.831 546.003 235.831 546.003H288.969Z" fill="#EDEDEB"/>
<path d="M229.928 546.003C229.928 546.003 229.252 568.22 203.358 568.22C177.464 568.22 176.789 546.003 176.789 546.003H229.928Z" fill="#EDEDEB"/>
<path d="M189.603 510.958H240.817C246.264 510.958 250.679 506.544 250.679 501.097V474.905C250.679 469.458 246.264 465.044 240.817 465.044H189.603C184.156 465.044 179.741 469.458 179.741 474.905V501.097C179.741 506.544 184.156 510.958 189.603 510.958Z" fill="#EDEDEB"/>
<path d="M183.052 466.323H247.368C249.197 466.323 250.679 464.84 250.679 463.012V460.333C250.679 458.504 249.197 457.023 247.368 457.023H183.052C181.223 457.023 179.741 458.504 179.741 460.333V463.012C179.741 464.84 181.223 466.323 183.052 466.323Z" fill="#F3F2F1"/>
<path d="M308.472 642.593H301.755V532.403H308.472V642.593Z" fill="#E2E2E0"/>
<path d="M114.442 532.403H150.829V510.959H114.442V532.403Z" fill="#E2E2E0"/>
<path d="M331.737 532.403H150.831V510.959H331.737V532.403Z" fill="#F3F2F1"/>
<path d="M114.442 589.665H150.829V568.221H114.442V589.665Z" fill="#E2E2E0"/>
<path d="M331.737 589.665H150.829V568.221H331.737V589.665Z" fill="#F3F2F1"/>
<path d="M127.564 642.593H120.847V532.403H127.564V642.593Z" fill="#E2E2E0"/>
<path d="M157.548 642.593H150.829V532.403H157.548V642.593Z" fill="#F3F2F1"/>
<path d="M331.737 642.593H325.02V532.403H331.737V642.593Z" fill="#F3F2F1"/>
<path d="M107.148 687.714C107.148 696.052 222.891 702.812 365.667 702.812C508.443 702.812 624.186 696.052 624.186 687.714C624.186 679.376 508.443 672.616 365.667 672.616C222.891 672.616 107.148 679.376 107.148 687.714Z" fill="#F3F2F1"/>
<path d="M351.782 620.057H521.88C527.5 620.057 532.291 615.501 532.58 609.881L547.804 314.481C548.093 308.86 543.772 304.305 538.153 304.305H368.055C362.435 304.305 357.644 308.86 357.353 314.481L342.131 609.881C341.84 615.501 346.161 620.057 351.782 620.057Z" fill="#406FBF"/>
<path d="M351.781 620.057H521.88C525.2 620.057 528.231 618.468 530.215 616.008C531.589 614.304 532.461 612.183 532.58 609.881L545.185 365.29L547.804 314.481C547.813 314.305 547.817 314.13 547.817 313.957C547.823 308.58 543.597 304.305 538.153 304.305H530.945C531.665 305.713 532.033 307.338 531.944 309.069L517.384 591.589C517.107 596.965 512.525 601.322 507.149 601.322H344.468C343.819 601.322 343.188 601.259 342.581 601.137L342.131 609.881C342.121 610.057 342.116 610.232 342.116 610.405C342.112 615.783 346.337 620.057 351.781 620.057Z" fill="#D2FADC"/>
<path d="M384.841 296.003H403.657V294.67H384.841V296.003Z" fill="#406FBF"/>
<path d="M410.175 296.003H417.064V294.67H410.175V296.003Z" fill="#406FBF"/>
<path d="M344.468 601.322H507.149C512.525 601.322 517.107 596.965 517.384 591.589L531.944 309.069C532.22 303.693 528.088 299.336 522.713 299.336H360.031C354.656 299.336 350.075 303.693 349.797 309.069L335.237 591.589C334.96 596.965 339.093 601.322 344.468 601.322Z" fill="#49CA69" fill-opacity="0.5"/>
<path d="M522.714 306.169C523.616 306.169 524.178 306.561 524.49 306.888C524.803 307.219 525.167 307.804 525.12 308.717L510.559 591.238C510.471 592.971 508.878 594.489 507.15 594.489H344.468C343.564 594.489 343.004 594.098 342.694 593.771C342.379 593.441 342.015 592.856 342.062 591.941L356.622 309.421C356.711 307.689 358.304 306.169 360.031 306.169H522.714ZM344.468 594.822H507.15C509.046 594.822 510.795 593.156 510.892 591.256L525.454 308.733C525.506 307.703 525.09 307.036 524.731 306.66C524.375 306.284 523.735 305.836 522.714 305.836H360.031C358.136 305.836 356.387 307.503 356.288 309.404L341.728 591.924C341.676 592.956 342.092 593.622 342.451 594C342.807 594.374 343.446 594.822 344.468 594.822Z" fill="#7EAC89"/>
<path d="M435.009 422.796C462.208 422.796 485.393 400.747 486.796 373.548C488.197 346.349 467.284 324.3 440.085 324.3C412.886 324.3 389.701 346.349 388.3 373.548C386.897 400.747 407.81 422.796 435.009 422.796Z" fill="#4BCB6B"/>
<path d="M397.703 373.548C397.348 380.43 398.761 386.891 401.54 392.528C407.621 404.947 420.347 413.394 435.493 413.394C450.641 413.394 464.237 404.947 471.599 392.528C474.959 386.891 477.037 380.43 477.392 373.548C478.527 351.539 461.609 333.704 439.601 333.704C417.592 333.704 398.837 351.539 397.703 373.548Z" fill="white"/>
<path d="M401.54 392.528C407.621 404.947 420.347 413.394 435.493 413.394C450.641 413.394 464.237 404.947 471.599 392.528C461.913 385.827 450.077 381.915 437.116 381.915C424.156 381.915 411.916 385.827 401.54 392.528Z" fill="#2BA84A"/>
<path d="M420.501 359.918C419.996 369.719 427.532 377.666 437.335 377.666C447.137 377.666 455.493 369.719 455.997 359.918C456.503 350.115 448.967 342.168 439.164 342.168C429.361 342.168 421.005 350.115 420.501 359.918Z" fill="#2BA84A"/>
<path d="M367.783 491.425H495.161C497.436 491.425 499.375 489.581 499.492 487.307L500.456 468.589C500.573 466.315 498.825 464.471 496.551 464.471H369.172C366.897 464.471 364.959 466.315 364.841 468.589L363.876 487.307C363.76 489.581 365.508 491.425 367.783 491.425Z" fill="white"/>
<path d="M406.792 454.192H459.991C462.265 454.192 464.204 452.348 464.321 450.073L464.525 446.099C464.643 443.824 462.895 441.981 460.62 441.981H407.42C405.145 441.981 403.207 443.824 403.089 446.099L402.885 450.073C402.768 452.348 404.517 454.192 406.792 454.192Z" fill="#2BA84A"/>
<path d="M387.008 581.139H466.689C470.563 581.139 473.864 578 474.064 574.126L474.537 564.936C474.737 561.063 471.759 557.923 467.885 557.923H388.204C384.331 557.923 381.029 561.063 380.829 564.936L380.356 574.126C380.156 578 383.135 581.139 387.008 581.139Z" fill="#2BA84A"/>
<path d="M365.457 536.539H492.836C495.111 536.539 497.049 534.695 497.167 532.42L498.132 513.703C498.249 511.428 496.5 509.584 494.225 509.584H366.847C364.572 509.584 362.633 511.428 362.516 513.703L361.552 532.42C361.435 534.695 363.183 536.539 365.457 536.539Z" fill="white"/>
<path d="M478.963 477.948C478.833 480.466 480.769 482.507 483.287 482.507C485.805 482.507 487.952 480.466 488.081 477.948C488.211 475.43 486.275 473.388 483.757 473.388C481.239 473.388 479.093 475.43 478.963 477.948Z" fill="#17282F"/>
<path d="M464.953 477.948C464.824 480.466 466.76 482.507 469.277 482.507C471.796 482.507 473.943 480.466 474.072 477.948C474.201 475.43 472.265 473.388 469.748 473.388C467.229 473.388 465.083 475.43 464.953 477.948Z" fill="#17282F"/>
<path d="M450.944 477.948C450.815 480.466 452.751 482.507 455.268 482.507C457.787 482.507 459.932 480.466 460.063 477.948C460.192 475.43 458.256 473.388 455.737 473.388C453.22 473.388 451.073 475.43 450.944 477.948Z" fill="#17282F"/>
<path d="M436.935 477.948C436.804 480.466 438.74 482.507 441.259 482.507C443.776 482.507 445.923 480.466 446.052 477.948C446.183 475.43 444.247 473.388 441.728 473.388C439.211 473.388 437.064 475.43 436.935 477.948Z" fill="#17282F"/>
<path d="M476.639 523.062C476.508 525.58 478.444 527.622 480.963 527.622C483.48 527.622 485.627 525.58 485.756 523.062C485.887 520.544 483.951 518.503 481.432 518.503C478.915 518.503 476.768 520.544 476.639 523.062Z" fill="#17282F"/>
<path d="M462.628 523.062C462.499 525.58 464.435 527.622 466.953 527.622C469.471 527.622 471.617 525.58 471.747 523.062C471.877 520.544 469.94 518.503 467.423 518.503C464.904 518.503 462.759 520.544 462.628 523.062Z" fill="#17282F"/>
<path d="M448.619 523.062C448.49 525.58 450.426 527.622 452.943 527.622C455.462 527.622 457.608 525.58 457.738 523.062C457.867 520.544 455.931 518.503 453.414 518.503C450.895 518.503 448.748 520.544 448.619 523.062Z" fill="#17282F"/>
<path d="M434.609 523.062C434.48 525.58 436.416 527.622 438.933 527.622C441.452 527.622 443.597 525.58 443.728 523.062C443.857 520.544 441.921 518.503 439.404 518.503C436.885 518.503 434.738 520.544 434.609 523.062Z" fill="#17282F"/>
<path d="M420.6 523.062C420.469 525.58 422.405 527.622 424.924 527.622C427.441 527.622 429.588 525.58 429.718 523.062C429.848 520.544 427.912 518.503 425.393 518.503C422.876 518.503 420.729 520.544 420.6 523.062Z" fill="#17282F"/>
<path d="M406.589 523.062C406.46 525.58 408.396 527.622 410.915 527.622C413.432 527.622 415.579 525.58 415.708 523.062C415.839 520.544 413.903 518.503 411.384 518.503C408.867 518.503 406.72 520.544 406.589 523.062Z" fill="#17282F"/>
<path d="M254.959 368.229C254.624 368.724 254.455 368.996 254.235 369.352L253.639 370.349C253.252 371.009 252.913 371.668 252.572 372.327C251.905 373.645 251.275 374.965 250.711 376.299C249.568 378.965 248.631 381.688 247.82 384.429C246.177 389.909 245.173 395.525 244.659 401.143L244.555 402.196C244.536 402.347 244.523 402.584 244.512 402.832L244.483 403.549C244.465 404.497 244.512 405.435 244.644 406.321C244.895 408.109 245.376 409.76 245.967 411.287C247.165 414.327 248.812 416.909 250.579 419.26C254.195 423.941 258.3 427.688 262.991 431.009L266.664 426.708C263.368 422.896 260.175 418.672 257.809 414.455C256.603 412.352 255.68 410.183 255.107 408.161C254.837 407.151 254.692 406.179 254.669 405.303C254.639 404.86 254.671 404.451 254.713 404.063L254.755 403.779C254.764 403.692 254.775 403.595 254.809 403.415L254.976 402.476C255.848 397.472 257.039 392.555 258.6 387.805C259.367 385.424 260.315 383.123 261.276 380.861C261.752 379.727 262.279 378.627 262.817 377.553L263.644 375.987L264.055 375.244L264.393 374.661L254.959 368.229Z" fill="#892F38"/>
<path d="M267.405 431.095L262.577 441.288L258.748 432.668C258.748 432.668 262.141 425.201 266.733 425.885L267.405 431.095Z" fill="#872F37"/>
<path d="M259.117 441.793L255.284 435.508L258.748 432.668L262.577 441.288L259.117 441.793Z" fill="#872F37"/>
<path d="M278.62 676.241C280.565 676.631 282.026 676.563 282.592 676.047C282.833 675.828 282.921 675.52 282.864 675.107C282.832 674.883 282.729 674.809 282.644 674.771C281.957 674.456 280.002 675.405 278.62 676.241ZM280.821 677.02C279.789 677.02 278.661 676.807 277.872 676.619L277.672 676.408L277.788 676.141C278.169 675.889 281.562 673.7 282.861 674.288C283.066 674.381 283.325 674.586 283.388 675.032C283.47 675.624 283.324 676.098 282.949 676.439C282.473 676.872 281.68 677.02 280.821 677.02Z" fill="#406FBF"/>
<path d="M279.834 672.1C279.616 672.1 279.424 672.176 279.248 672.332C278.524 672.973 278.275 674.779 278.214 675.848C279.276 675.001 280.543 673.191 280.39 672.422C280.364 672.297 280.292 672.148 279.954 672.107L279.834 672.1ZM277.934 676.626L277.8 676.591L277.668 676.362C277.668 676.226 277.684 673.01 278.898 671.936C279.22 671.649 279.599 671.529 280.018 671.583C280.68 671.662 280.86 672.079 280.908 672.32C281.16 673.579 279.13 675.988 278.063 676.592L277.934 676.626Z" fill="#406FBF"/>
<path d="M299.621 672.424C299.027 671.78 296.389 671.607 294.408 671.638C296.485 673.045 298.2 673.717 299.069 673.446C299.375 673.352 299.58 673.141 299.7 672.805C299.747 672.673 299.735 672.571 299.661 672.471L299.621 672.424ZM293.414 671.579L293.353 671.324L293.595 671.135C294.148 671.108 298.94 670.909 300.02 672.076L300.085 672.155C300.265 672.397 300.305 672.684 300.199 672.981C300.021 673.48 299.695 673.807 299.227 673.952C297.675 674.434 294.943 672.693 293.452 671.613L293.414 671.579Z" fill="#406FBF"/>
<path d="M298.201 668.905L297.948 668.712C297.6 668.508 297.234 668.461 296.832 668.569C295.673 668.883 294.582 670.364 294.1 671.105C295.676 670.925 298.092 669.95 298.296 669.209C298.309 669.165 298.338 669.055 298.201 668.905ZM293.413 671.579L293.378 671.532L293.377 671.269C293.44 671.159 294.929 668.534 296.694 668.059C297.233 667.913 297.746 667.98 298.216 668.256C298.85 668.628 298.886 669.057 298.806 669.349C298.465 670.585 295.066 671.673 293.605 671.664L293.413 671.579Z" fill="#406FBF"/>
<path d="M278.735 329.169C280.034 335.797 282.952 350.253 278.315 354.676C278.315 354.676 280.127 361.398 292.442 361.398C305.982 361.398 298.912 354.677 298.912 354.677C291.522 352.912 291.712 347.429 293 342.28L278.735 329.169Z" fill="#872F37"/>
<path d="M301.3 313.54L301.063 313.484C300.803 313.353 300.696 313.036 300.827 312.773C302.137 310.157 304.561 309.853 304.664 309.843C304.953 309.807 305.216 310.017 305.249 310.308C305.283 310.597 305.075 310.859 304.787 310.893C304.707 310.903 302.819 311.16 301.773 313.248C301.68 313.433 301.493 313.54 301.3 313.54Z" fill="#17282F"/>
<path d="M305.337 319.332C305.337 319.332 307.33 322.993 309.23 324.644C308.186 325.89 306.117 325.636 306.117 325.636L305.337 319.332Z" fill="#6B1317"/>
<path d="M304.347 317.895C304.457 318.79 305.021 319.455 305.605 319.383C306.191 319.311 306.575 318.527 306.464 317.634C306.353 316.739 305.789 316.074 305.205 316.146C304.621 316.218 304.237 317.002 304.347 317.895Z" fill="#17282F"/>
<path d="M304.953 316.227L307.024 315.343C307.024 315.343 306.129 317.156 304.953 316.227Z" fill="#17282F"/>
<path d="M281.646 669.045L292.522 671.585L299.131 646.569L288.255 644.029L281.646 669.045Z" fill="#872F37"/>
<path d="M264.945 676.361H276.113L275.237 650.498H264.069L264.945 676.361Z" fill="#872F37"/>
<path d="M276.999 675.069H264.451C263.995 675.069 263.624 675.387 263.56 675.832L262.131 685.759C261.981 686.789 262.868 687.764 263.92 687.745C268.295 687.669 270.403 687.414 275.921 687.414C279.316 687.414 284.275 687.765 288.963 687.765C293.548 687.765 293.9 683.131 291.948 682.71C283.196 680.828 281.813 678.232 278.865 675.756C278.333 675.309 277.667 675.069 276.999 675.069Z" fill="#17282F"/>
<path d="M293.486 669.919L282.087 664.676C281.672 664.485 281.203 664.617 280.958 664.996L275.511 673.417C274.946 674.291 275.343 675.547 276.307 675.971C280.312 677.729 282.335 678.377 287.348 680.684C290.432 682.103 296.663 685.357 300.922 687.316C305.087 689.232 307.346 685.168 305.747 683.972C298.583 678.604 296.538 674.805 294.895 671.324C294.598 670.696 294.092 670.198 293.486 669.919Z" fill="#17282F"/>
<path d="M284.847 656.931L286.68 649.989L286.675 649.986L284.842 656.929L284.847 656.931Z" fill="#C3C5C2"/>
<path d="M295.588 659.977L297.217 653.807L286.68 649.989L284.847 656.931L295.588 659.977Z" fill="#682329"/>
<path d="M264.514 663.837H264.521L264.433 661.256H264.427L264.514 663.837Z" fill="#C3C5C2"/>
<path d="M264.521 663.837H275.687L275.6 661.256H264.433L264.521 663.837Z" fill="#682329"/>
<path d="M259.053 357.213C254.415 358.231 249.459 374.921 249.459 374.921L262.577 388.871C262.577 388.871 273.461 373.195 271.244 367.429C268.935 361.427 264.537 356.012 259.053 357.213Z" fill="#17282F"/>
<path d="M263.621 387.316C263.975 386.769 264.401 386.099 264.872 385.335C264.871 385.331 264.871 385.328 264.869 385.325C264.4 386.089 263.973 386.759 263.619 387.307C263.619 387.309 263.62 387.313 263.621 387.316Z" fill="#858889"/>
<path d="M263.618 387.307C263.973 386.759 264.4 386.089 264.869 385.325C264.328 382.111 263.678 378.623 262.905 374.792C262.074 379.323 262.88 384.347 263.618 387.307Z" fill="#0C1418"/>
<path d="M317.791 357.537C317.791 357.537 323.111 359.412 312.453 424.944C294.455 424.944 275.853 424.944 267.095 424.944C267.856 406.484 267.877 395.1 259.053 357.213C259.053 357.213 268.558 355.147 278.315 354.676C285.948 354.308 292.202 354.064 298.912 354.677C307.759 355.484 317.791 357.537 317.791 357.537Z" fill="#17282F"/>
<path d="M317.14 392.448C317.576 388.878 317.917 385.679 318.184 382.806C317.909 385.682 317.567 388.882 317.14 392.448Z" fill="#8C8F8F"/>
<path d="M317.008 393.516C317.052 393.156 317.096 392.8 317.14 392.448C317.567 388.881 317.909 385.681 318.184 382.805C318.187 382.767 318.191 382.728 318.195 382.689C316.368 380.023 313.968 377.036 311.368 375.104C310.256 380.656 313.294 390.171 317.008 393.516Z" fill="#0C1418"/>
<path d="M313.353 372.755C315.821 378.988 318.539 384.912 321.597 390.828C324.651 396.736 327.911 402.541 332.244 408.155L333.097 409.205L333.523 409.728C333.669 409.905 333.784 410.06 334.02 410.303C334.844 411.212 335.737 411.992 336.653 412.645C338.489 413.955 340.388 414.788 342.228 415.429C345.913 416.669 349.475 417.109 352.948 417.317C359.918 417.6 366.511 416.955 373.16 415.523L372.42 409.916C369.356 409.932 366.142 409.863 363.043 409.668C359.928 409.505 356.845 409.172 353.888 408.644C350.937 408.149 348.083 407.399 345.703 406.363C344.528 405.836 343.507 405.205 342.756 404.567C342.377 404.248 342.082 403.923 341.844 403.612C341.794 403.567 341.675 403.391 341.572 403.248L341.261 402.808L340.638 401.932C337.352 397.072 334.468 391.425 331.714 385.781C329.008 380.112 326.398 374.232 323.948 368.495L313.353 372.755Z" fill="#892F38"/>
<path d="M317.791 357.538C323.341 358.891 330.172 374.131 330.172 374.131L318.651 391.058C318.651 391.058 303.311 371.747 305.135 365.846C307.035 359.7 311.056 355.896 317.791 357.538Z" fill="#17282F"/>
<path d="M369.225 410.747L378.836 406.309L379.801 415.863C379.801 415.863 371.769 418.227 367.809 415.805L369.225 410.747Z" fill="#872F37"/>
<path d="M384.592 405.344L385.509 412.619L379.801 415.863L378.836 406.309L384.592 405.344Z" fill="#872F37"/>
<path d="M273.908 318.545C275.941 329.441 276.569 334.097 282.812 339.046C292.201 346.49 305.141 341.612 306.404 330.328C307.543 320.17 304.027 304.057 292.739 301.018C281.617 298.024 271.876 307.649 273.908 318.545Z" fill="#872F37"/>
<path d="M297.843 320.84C298.465 326.396 298.705 340.832 286.5 341.285C271.541 341.841 267.064 329.062 268.397 323.952C260.62 317.618 259.495 306.73 268.24 298.396C276.985 290.062 296.24 294.721 301.62 302.84C308.287 312.904 297.843 320.84 297.843 320.84Z" fill="#17282F"/>
<path d="M282.865 301.633C283.588 295.773 283.027 291.729 277.545 291.729C272.064 291.729 264.564 293.721 261.815 299.336C259.064 304.952 258.843 313.729 266.509 312.84C274.176 311.952 282 308.649 282.865 301.633Z" fill="#4BCB6B"/>
<path d="M274.364 300.227C275.669 293.235 269.443 273.564 254.249 272.285C247.212 271.693 243.953 279.267 247.639 280.515C240.991 280.433 236.705 289.245 242.923 290.573C238.007 293.713 239.231 300.173 246.231 303.34C251.392 305.676 272.556 309.899 274.364 300.227Z" fill="#17282F"/>
<path d="M258.133 307.732C263.021 307.733 268.133 307.015 271.3 304.893C273.223 303.605 274.277 301.899 274.435 299.819C274.448 299.635 274.311 299.475 274.128 299.461C273.933 299.447 273.784 299.585 273.769 299.768C273.629 301.633 272.673 303.172 270.929 304.34C264.896 308.38 250.951 307.072 246.581 305.645C242.823 304.42 240.277 302.043 239.772 299.287C239.401 297.265 240.195 295.351 242.004 293.893C242.148 293.777 242.171 293.567 242.056 293.424C241.94 293.281 241.729 293.259 241.587 293.373C239.607 294.968 238.707 297.167 239.116 299.407C239.667 302.407 242.38 304.976 246.375 306.28C248.663 307.027 253.288 307.732 258.133 307.732Z" fill="#17282F"/>
<path d="M301.244 319.368C302.584 321.223 302.968 323.528 302.673 325.388C302.229 328.184 299.503 328.369 297.529 326.577C295.752 324.964 293.843 321.564 295.297 319.245C296.731 316.961 299.713 317.248 301.244 319.368Z" fill="#872F37"/>
<path d="M300.475 424.944C300.475 424.944 293.993 501.599 287.268 544.8C281.836 579.693 277.553 661.256 277.553 661.256H262.323C262.323 661.256 256.907 582.131 259.664 547.619C266.64 460.288 251.081 453.175 267.095 424.944H300.475Z" fill="#2BA84A"/>
<path d="M290.753 519.552C290.931 518.135 291.108 516.707 291.283 515.27V515.268C291.107 516.707 290.931 518.134 290.753 519.552Z" fill="#858889"/>
<path d="M289.569 528.716C289.968 525.729 290.364 522.666 290.753 519.552C290.931 518.133 291.107 516.706 291.283 515.268C286.821 502.26 282.915 491.698 279.821 482.072C280.641 500.698 284.876 516.866 289.569 528.716Z" fill="#369C4F"/>
<path d="M311.135 424.46C311.135 424.46 325.196 508.179 327.417 545.915C321.895 580.809 299.307 654.562 299.307 654.562L285.453 649.545C285.453 649.545 293.117 569.119 301.497 547.1C282.737 483.937 268.949 467.973 272.961 424.944C282.529 424.944 311.135 424.46 311.135 424.46Z" fill="#2BA84A"/>
<path d="M301.165 658.248L282.445 653.165L283.505 645.704L303.549 651.124L301.165 658.248Z" fill="#17282F"/>
<path d="M279.637 661.557H260.239L259.22 654.752L279.748 654.057L279.637 661.557Z" fill="#17282F"/>
<path d="M266.414 422.283L264.369 426.343C264.21 426.657 264.584 426.979 265.108 426.979H312.677C313.086 426.979 313.425 426.779 313.45 426.521L313.86 422.461C313.888 422.18 313.534 421.941 313.086 421.941H267.153C266.816 421.941 266.517 422.08 266.414 422.283Z" fill="#406FBF"/>
<path d="M290.952 426.979H312.677C313.087 426.979 313.425 426.779 313.451 426.521L313.86 422.461C313.861 422.449 313.861 422.439 313.861 422.428C313.861 422.161 313.516 421.941 313.087 421.941H293.773C293.099 423.829 292.175 425.532 290.952 426.979ZM264.491 426.785C264.441 426.716 264.392 426.645 264.344 426.575C264.365 426.652 264.417 426.724 264.491 426.785Z" fill="#385B41"/>
<path d="M272.584 427.419H271.355C271.11 427.419 270.923 427.292 270.939 427.138L271.516 421.863C271.534 421.708 271.747 421.583 271.992 421.583H273.223C273.468 421.583 273.655 421.708 273.638 421.863L273.06 427.138C273.044 427.292 272.83 427.419 272.584 427.419Z" fill="#406FBF"/>
<path d="M289.097 388.562C289.397 388.562 289.663 388.361 289.74 388.071C294.091 371.999 303.132 358.78 307.444 356.741C307.928 356.513 308.328 356.448 308.568 356.556C308.907 356.708 309.3 356.556 309.451 356.221C309.601 355.887 309.452 355.491 309.116 355.34C308.495 355.059 307.741 355.127 306.875 355.536C302.272 357.712 293.152 370.779 288.589 387.227C285.32 387.185 280.276 386.777 279.059 386.675C277.535 384.865 266.355 370.889 270.537 355.603C270.635 355.248 270.425 354.88 270.071 354.784C269.719 354.687 269.349 354.895 269.251 355.251C264.595 372.267 278.097 387.608 278.235 387.761C278.348 387.888 278.504 387.965 278.673 387.98C278.74 387.987 285.389 388.562 289.097 388.562Z" fill="black"/>
<path d="M267.011 397.988C274.279 384.364 277.251 383.412 278.551 379.032C278.551 379.032 277.38 375.725 274.407 372.377C275.299 372.129 277.185 371.752 278.369 371.524C278.235 370.927 278.097 370.337 277.963 369.772C278.944 369.5 280.984 369.781 282.027 369.956L282.073 368.611C282.073 368.611 285.759 367.872 287.24 368.283C287.092 368.903 286.943 369.548 286.793 370.203C288.092 370.453 290.161 370.867 291.139 371.139C288.308 374.327 287.287 377.731 287.067 378.571C290.98 385.297 306.212 428.584 281.445 431.839C256.663 435.096 259.744 411.613 267.011 397.988Z" fill="#406FBF"/>
<path d="M277.044 432.146C278.403 432.146 279.868 432.047 281.445 431.839C292.003 430.452 295.292 421.791 295.288 411.787C295.283 398.324 289.312 382.431 287.067 378.571C287.287 377.731 288.308 374.327 291.139 371.139C290.161 370.867 288.092 370.454 286.793 370.203C286.943 369.548 287.092 368.903 287.24 368.283C286.917 368.194 286.491 368.159 286.02 368.159C284.329 368.159 282.073 368.611 282.073 368.611L282.027 369.956C281.296 369.834 280.077 369.659 279.075 369.659C278.647 369.659 278.257 369.691 277.963 369.772C278.097 370.338 278.235 370.927 278.369 371.524C277.185 371.752 275.299 372.13 274.407 372.378C277.38 375.726 278.551 379.032 278.551 379.032C277.251 383.412 274.279 384.364 267.011 397.988C264.068 403.508 261.811 410.644 261.815 416.965C261.819 425.256 265.712 432.146 277.044 432.146Z" fill="#4BCB6B"/>
<path d="M287.991 377.283C288.173 377.614 288.157 378.867 288.184 379.367C288.212 379.867 286.879 380.2 285.379 380.339C283.879 380.478 277.684 380.727 277.879 380.034C278.073 379.339 277.573 378.394 277.545 377.811C277.517 377.227 280.017 377.2 282.101 377.283C284.184 377.367 287.573 376.534 287.991 377.283Z" fill="#385B41"/>
<path d="M302.403 427.419H301.172C300.928 427.419 300.741 427.292 300.757 427.138L301.335 421.863C301.352 421.708 301.565 421.583 301.811 421.583H303.041C303.285 421.583 303.472 421.708 303.456 421.863L302.879 427.138C302.861 427.292 302.648 427.419 302.403 427.419Z" fill="#2BA84A"/>
</svg>
