<svg width="71" height="53" viewBox="0 0 71 53" fill="none" xmlns="http://www.w3.org/2000/svg">
<path d="M63.0362 8.31231C63.0247 8.29233 63.0048 8.28234 62.9934 8.26379C62.9491 8.19815 62.8977 8.1425 62.8378 8.0897C62.8178 8.07543 62.805 8.05973 62.7864 8.04689C62.6908 7.97553 62.5852 7.91703 62.4654 7.88991L32.9979 0.990252C32.8438 0.956003 32.6754 0.963138 32.5184 1.01166L11.4988 7.90989C11.4389 7.9313 11.3918 7.97125 11.339 8.00265C11.3047 8.02263 11.2633 8.02691 11.2334 8.04974C11.2248 8.05687 11.2205 8.06972 11.212 8.07685C11.2034 8.08542 11.1891 8.08684 11.1806 8.09683L0.373945 17.8149C0.057152 18.1031 -0.0127708 18.5755 0.208414 18.9394C0.368237 19.2062 0.660771 19.3717 0.971856 19.3717C1.08031 19.3717 1.18448 19.3518 1.28294 19.3161L10.8866 15.7371V44.5102C10.8866 44.9183 11.162 45.2737 11.5587 45.3721L40.0373 52.6385C40.1058 52.6585 40.18 52.6685 40.2627 52.6685C40.3612 52.6685 40.4582 52.6528 40.551 52.6228L61.8632 45.3536C62.2256 45.2323 62.4682 44.8926 62.4682 44.5102V25.869L70.3167 23.1519C70.5693 23.0635 70.7662 22.8722 70.8604 22.6225C70.9546 22.3728 70.9332 22.0988 70.799 21.8662L63.0362 8.31231ZM10.8838 13.8292L5.05306 16.004L10.8838 10.7568V13.8292ZM39.368 50.6279L12.6689 43.8167V9.91914L39.368 17.0714V50.6279ZM40.2299 15.4531L14.9022 8.66907L32.8367 2.78402L59.0606 8.92308L40.2299 15.4531ZM60.6816 43.8709L41.1518 50.5294V18.2487L49.1529 29.7919C49.3213 30.0316 49.5953 30.1772 49.8878 30.1772C49.9806 30.1772 50.079 30.16 50.1804 30.1287L60.6816 26.4897V43.8709ZM50.2346 28.2164L42.2163 16.6518L61.856 9.84208L68.7128 21.8177L50.2346 28.2164Z" fill="black"/>
</svg>
