<svg width="57" height="51" viewBox="0 0 57 51" fill="none" xmlns="http://www.w3.org/2000/svg">
<path d="M42.4539 18.4729C41.5217 17.3451 41.0084 15.9154 41.0084 14.4474V5.97907C41.5342 5.68503 41.8912 5.11984 41.8912 4.47182V2.69164C41.8912 1.74158 41.1247 0.96875 40.1824 0.96875H34.8855C33.9432 0.96875 33.1767 1.74158 33.1767 2.69164V4.47182C33.1767 5.11984 33.5338 5.68492 34.0595 5.97907V14.4475C34.0595 15.9156 33.5462 17.3453 32.6141 18.473L31.4739 19.8525C30.2948 21.2792 29.6455 23.0875 29.6455 24.9444V47.197C29.6455 49.1286 31.2041 50.7 33.1199 50.7H41.948C43.8639 50.7 45.4225 49.1285 45.4225 47.197V24.9443C45.4225 23.0873 44.7732 21.2791 43.5942 19.8524L42.4539 18.4729ZM34.8287 2.69164C34.8287 2.65999 34.8541 2.63434 34.8855 2.63434H40.1824C40.2138 2.63434 40.2393 2.65999 40.2393 2.69164V4.47182C40.2393 4.50347 40.2138 4.52912 40.1824 4.52912H34.8855C34.8541 4.52912 34.8287 4.50347 34.8287 4.47182V2.69164ZM43.7706 47.1969C43.7706 48.2101 42.953 49.0343 41.948 49.0343H33.1199C32.115 49.0343 31.2975 48.21 31.2975 47.1969V44.4692H37.534C38.9631 44.4692 40.1256 43.2971 40.1256 41.8562V33.8453C40.1256 33.3852 39.7558 33.0125 39.2996 33.0125C38.8435 33.0125 38.4737 33.3852 38.4737 33.8453V41.8562C38.4737 42.3787 38.0521 42.8036 37.534 42.8036H31.2975V28.4473H37.534C38.0522 28.4473 38.4737 28.8724 38.4737 29.3947V30.2848C38.4737 30.7447 38.8435 31.1176 39.2996 31.1176C39.7558 31.1176 40.1256 30.7447 40.1256 30.2848V29.3947C40.1256 27.9539 38.963 26.7817 37.534 26.7817H31.2975V24.9443C31.2975 23.4762 31.8108 22.0466 32.7429 20.9187L33.8831 19.5393C35.0622 18.1128 35.7115 16.3045 35.7115 14.4475V6.19471H39.3565V14.4474C39.3565 16.3043 40.0058 18.1127 41.1848 19.5392L42.3251 20.9186C43.2573 22.0465 43.7706 23.4761 43.7706 24.9441V47.1969Z" fill="black"/>
<path d="M55.0706 24.303L53.9305 22.9235C52.9983 21.7957 52.485 20.3661 52.485 18.898V12.2098C53.0108 11.9157 53.3678 11.3507 53.3678 10.7025V8.92235C53.3678 7.9723 52.6013 7.19946 51.659 7.19946H46.3621C45.4198 7.19946 44.6533 7.9723 44.6533 8.92235V10.7025C44.6533 11.3506 45.0104 11.9156 45.5361 12.2098V18.898C45.5361 19.3579 45.9059 19.7308 46.3621 19.7308C46.8183 19.7308 47.1881 19.3579 47.1881 18.898V12.4255H50.8331V18.898C50.8331 20.7549 51.4824 22.5632 52.6614 23.9897L53.8016 25.3693C54.7336 26.4972 55.2471 27.9268 55.2471 29.3948V30.3422H50.7761C49.3471 30.3422 48.1845 31.5144 48.1845 32.9551V41.8562C48.1845 43.297 49.3472 44.4692 50.7761 44.4692H55.2471V47.1968C55.2471 48.2101 54.4296 49.0343 53.4246 49.0343H47.6299C47.1738 49.0343 46.8039 49.4072 46.8039 49.8671C46.8039 50.327 47.1738 50.6999 47.6299 50.6999H53.4246C55.3405 50.6999 56.899 49.1284 56.899 47.1968V29.3948C56.899 27.538 56.2497 25.7297 55.0706 24.303ZM46.3053 8.92235C46.3053 8.89081 46.3307 8.86505 46.3621 8.86505H51.659C51.6904 8.86505 51.7159 8.8907 51.7159 8.92235V10.7025C51.7159 10.7342 51.6904 10.7599 51.659 10.7599H46.3621C46.3307 10.7599 46.3053 10.7343 46.3053 10.7025V8.92235ZM50.7761 42.8037C50.258 42.8037 49.8365 42.3787 49.8365 41.8563V32.9553C49.8365 32.4328 50.2581 32.0079 50.7761 32.0079H55.2471V42.8038H50.7761V42.8037Z" fill="black"/>
<path d="M27.449 49.0345H26.0004V42.7465C26.0004 42.224 26.422 41.7991 26.9401 41.7991C27.3962 41.7991 27.7661 41.4262 27.7661 40.9663C27.7661 40.5063 27.3962 40.1335 26.9401 40.1335C25.511 40.1335 24.3485 41.3056 24.3485 42.7465V49.0345H22.5261C21.07 49.0345 19.6521 48.517 18.5335 47.5771L17.1652 46.4275C15.7504 45.2388 13.9569 44.584 12.1152 44.584H5.69573V40.9089H12.1152C13.957 40.9089 15.7505 40.2542 17.1652 39.0654L18.5335 37.9157C19.6521 36.9759 21.07 36.4583 22.5261 36.4583H26.9402C27.3963 36.4583 27.7662 36.0854 27.7662 35.6255C27.7662 35.1655 27.3963 34.7927 26.9402 34.7927H22.5261C20.6842 34.7927 18.8908 35.4474 17.4759 36.6362L16.1077 37.7859C14.9891 38.7257 13.5711 39.2433 12.1151 39.2433H5.48175C5.19001 38.7132 4.62956 38.3532 3.98684 38.3532H2.22123C1.27896 38.3532 0.512451 39.126 0.512451 40.0761V45.4167C0.512451 46.3668 1.27896 47.1397 2.22123 47.1397H3.98684C4.62956 47.1397 5.19001 46.7798 5.48175 46.2495H12.1152C13.5713 46.2495 14.9892 46.7672 16.1078 47.707L17.476 48.8566C18.8909 50.0454 20.6843 50.7001 22.5262 50.7001H27.4491C27.9053 50.7001 28.2751 50.3272 28.2751 49.8673C28.2751 49.4074 27.9051 49.0345 27.449 49.0345ZM3.98684 45.474H2.22123C2.18984 45.474 2.1644 45.4484 2.1644 45.4166V40.076C2.1644 40.0444 2.18984 40.0187 2.22123 40.0187H3.98684C4.01823 40.0187 4.04367 40.0443 4.04367 40.076V45.4166C4.04367 45.4484 4.01823 45.474 3.98684 45.474Z" fill="black"/>
</svg>
