<svg width="160" height="52" viewBox="0 0 160 52" fill="none" xmlns="http://www.w3.org/2000/svg">
<path d="M21.6279 51.8292C21.4092 51.8292 21.1891 51.7731 20.9859 51.6608C20.4994 51.3894 20.1925 50.8375 20.1925 50.2325V45.4422H4.30684C3.53873 45.4422 2.78163 45.213 2.11717 44.7779C1.44706 44.3365 0.900406 43.7067 0.530325 42.955C0.161584 42.208 -0.0206339 41.3582 0.00185617 40.5005C0.0284614 39.6414 0.259774 38.8071 0.671964 38.0819L9.50358 22.8096C9.72226 22.4275 10.0769 22.1655 10.4792 22.0923C10.8801 22.0175 11.2922 22.1375 11.6118 22.4214L16.1214 26.4382C16.6934 26.9466 16.828 27.8541 16.4354 28.5418L12.2468 35.8615H20.1922V31.0712C20.1922 30.4661 20.4992 29.9142 20.9856 29.6428C21.4735 29.3731 22.0551 29.4323 22.4883 29.7941L33.9718 39.3747C34.3335 39.6756 34.5466 40.1497 34.5466 40.6518C34.5466 41.1538 34.3335 41.6279 33.9718 41.9288L22.4883 51.5094C22.2362 51.7216 21.9321 51.8292 21.6279 51.8292Z" fill="#2BA84A"/>
<path d="M11.3498 31.1225C11.1017 31.1225 10.8535 31.0507 10.6321 30.9088C10.2409 30.6578 9.9788 30.2148 9.92415 29.716L8.20696 13.8622C8.14246 13.2618 8.38784 12.6725 8.84205 12.3387C9.29481 12.005 9.87659 11.9862 10.3504 12.2888L14.1338 14.7199L20.8652 2.94997C22.3876 0.295973 26.6098 0.295973 28.1321 2.94997L34.8076 14.62C35.1946 15.2968 35.0698 16.1872 34.5175 16.7018L30.0766 20.8357C29.7611 21.1335 29.3532 21.2614 28.9355 21.1896C28.5275 21.1195 28.166 20.8559 27.9445 20.4691L24.4975 14.4438L21.5958 19.5102L25.2686 21.8695C25.7396 22.172 26.0158 22.7442 25.9836 23.3478C25.9513 23.9513 25.6148 24.4829 25.1145 24.7215L11.9138 30.9947C11.7324 31.0806 11.5419 31.1225 11.3498 31.1225Z" fill="#EFBD09"/>
<path d="M48.3369 38.097V38.065L40.0018 23.6941L43.7052 21.3309C44.1932 21.0114 44.4516 20.4686 44.4229 19.8618C44.3943 19.2549 44.0497 18.7121 43.5617 18.4886L30.3556 12.1973C29.9538 12.0057 29.4657 12.0376 29.0925 12.2932C28.6906 12.5488 28.4322 12.9957 28.3747 13.4748L26.6522 29.3465C26.5947 29.9216 26.8245 30.5281 27.2838 30.8476C27.7433 31.1989 28.3174 31.1989 28.8055 30.9116L32.5376 28.5164L36.7578 35.8615H29.7529L33.973 39.3743C34.3462 39.6619 34.5472 40.1408 34.5472 40.6518C34.5472 41.1627 34.3462 41.6418 33.973 41.9291L29.7529 45.4421H44.691C45.4662 45.4421 46.2127 45.2186 46.8729 44.7713C47.562 44.3242 48.1074 43.7174 48.4519 42.951C48.8252 42.2166 49.0261 41.3542 48.9974 40.492C48.9683 39.6298 48.7387 38.7995 48.3369 38.097Z" fill="#FD003A"/>
<path d="M65.129 43.4191C64.597 43.4191 64.191 43.2721 63.911 42.9781C63.631 42.6841 63.491 42.2711 63.491 41.7391V29.8951C63.491 29.3631 63.631 28.9571 63.911 28.6771C64.191 28.3831 64.597 28.2361 65.129 28.2361C66.207 28.2361 66.746 28.7891 66.746 29.8951V34.8721H66.788L72.374 29.0341C72.612 28.7821 72.857 28.5931 73.109 28.4671C73.375 28.3271 73.676 28.2571 74.012 28.2571C74.488 28.2571 74.838 28.3831 75.062 28.6351C75.286 28.8871 75.384 29.1881 75.356 29.5381C75.328 29.8741 75.174 30.1821 74.894 30.4621L69.959 35.5021L75.188 41.0671C75.51 41.4171 75.671 41.7741 75.671 42.1381C75.685 42.5021 75.566 42.8101 75.314 43.0621C75.076 43.3001 74.719 43.4191 74.243 43.4191C73.837 43.4191 73.508 43.3351 73.256 43.1671C73.018 42.9991 72.752 42.7541 72.458 42.4321L66.788 36.4681H66.746V41.7391C66.746 42.2711 66.606 42.6841 66.326 42.9781C66.06 43.2721 65.661 43.4191 65.129 43.4191ZM79.608 43.2301C79.062 43.2301 78.649 43.0901 78.369 42.8101C78.089 42.5161 77.949 42.1031 77.949 41.5711V30.0421C77.949 29.5101 78.089 29.1041 78.369 28.8241C78.649 28.5301 79.055 28.3831 79.587 28.3831C80.665 28.3831 81.204 28.9361 81.204 30.0421V40.4791H86.832C87.77 40.4791 88.239 40.9341 88.239 41.8441C88.239 42.7681 87.77 43.2301 86.832 43.2301H79.608ZM91.6251 43.4191C91.0931 43.4191 90.6871 43.2721 90.4071 42.9781C90.1271 42.6841 89.9871 42.2711 89.9871 41.7391V29.9161C89.9871 28.7961 90.5331 28.2361 91.6251 28.2361C92.7031 28.2361 93.2421 28.7961 93.2421 29.9161V41.7391C93.2421 42.8591 92.7031 43.4191 91.6251 43.4191ZM97.7335 43.4191C96.7255 43.4191 96.2215 42.8941 96.2215 41.8441V29.8741C96.2215 29.3421 96.3475 28.9361 96.5995 28.6561C96.8655 28.3761 97.2155 28.2361 97.6495 28.2361C98.0135 28.2361 98.3005 28.3131 98.5105 28.4671C98.7205 28.6071 98.9585 28.8451 99.2245 29.1811L106.028 37.8541V29.7901C106.028 28.7541 106.532 28.2361 107.54 28.2361C108.548 28.2361 109.052 28.7541 109.052 29.7901V41.9071C109.052 42.3691 108.933 42.7401 108.695 43.0201C108.457 43.2861 108.135 43.4191 107.729 43.4191C107.337 43.4191 107.022 43.3421 106.784 43.1881C106.56 43.0341 106.315 42.7891 106.049 42.4531L99.2455 33.7801V41.8441C99.2455 42.8941 98.7415 43.4191 97.7335 43.4191ZM119.557 43.2301C119.011 43.2301 118.598 43.0901 118.318 42.8101C118.038 42.5161 117.898 42.1031 117.898 41.5711V30.0421C117.898 29.5101 118.038 29.1041 118.318 28.8241C118.598 28.5301 119.004 28.3831 119.536 28.3831C120.614 28.3831 121.153 28.9361 121.153 30.0421V40.4791H126.781C127.719 40.4791 128.188 40.9341 128.188 41.8441C128.188 42.7681 127.719 43.2301 126.781 43.2301H119.557ZM130.11 43.4191C129.522 43.4191 129.102 43.2231 128.85 42.8311C128.598 42.4391 128.605 41.9561 128.871 41.3821L134.247 29.6011C134.471 29.1251 134.737 28.7821 135.045 28.5721C135.353 28.3481 135.71 28.2361 136.116 28.2361C136.522 28.2361 136.879 28.3481 137.187 28.5721C137.495 28.7821 137.754 29.1251 137.964 29.6011L143.382 41.3821C143.648 41.9701 143.655 42.4601 143.403 42.8521C143.165 43.2301 142.773 43.4191 142.227 43.4191C141.751 43.4191 141.38 43.3071 141.114 43.0831C140.862 42.8591 140.638 42.5091 140.442 42.0331L139.56 40.0171H132.651L131.79 42.0331C131.58 42.5231 131.356 42.8801 131.118 43.1041C130.88 43.3141 130.544 43.4191 130.11 43.4191ZM136.074 31.8901L133.743 37.4761H138.489L136.116 31.8901H136.074ZM152.482 43.4611C150.816 43.4611 149.402 43.1461 148.24 42.5161C147.092 41.8861 146.217 41.0041 145.615 39.8701C145.013 38.7361 144.712 37.4061 144.712 35.8801C144.712 34.3121 145.02 32.9541 145.636 31.8061C146.266 30.6581 147.169 29.7691 148.345 29.1391C149.521 28.5091 150.935 28.1941 152.587 28.1941C153.343 28.1941 154.099 28.2781 154.855 28.4461C155.611 28.6141 156.339 28.8941 157.039 29.2861C157.417 29.4961 157.641 29.7761 157.711 30.1261C157.795 30.4761 157.76 30.8191 157.606 31.1551C157.452 31.4771 157.214 31.7151 156.892 31.8691C156.584 32.0091 156.213 31.9741 155.779 31.7641C154.841 31.2741 153.784 31.0291 152.608 31.0291C151.11 31.0291 149.983 31.4491 149.227 32.2891C148.485 33.1151 148.114 34.3121 148.114 35.8801C148.114 37.4621 148.492 38.6591 149.248 39.4711C150.018 40.2831 151.152 40.6891 152.65 40.6891C153.448 40.6891 154.288 40.5631 155.17 40.3111V37.4131H153.28C152.412 37.4131 151.978 37.0211 151.978 36.2371C151.978 35.4531 152.412 35.0611 153.28 35.0611H156.577C157.431 35.0611 157.858 35.4951 157.858 36.3631V41.2351C157.858 41.5991 157.781 41.9071 157.627 42.1591C157.487 42.4111 157.256 42.5931 156.934 42.7051C156.304 42.9291 155.597 43.1111 154.813 43.2511C154.029 43.3911 153.252 43.4611 152.482 43.4611Z" fill="black"/>
</svg>
