<svg width="41" height="50" viewBox="0 0 41 50" fill="none" xmlns="http://www.w3.org/2000/svg">
<path d="M39.0105 17.4375L36.9 14.4778V10.6401C36.9 10.4226 36.8136 10.214 36.6598 10.0602C36.5061 9.90646 36.2975 9.82007 36.08 9.82007H31.16C30.9425 9.82007 30.734 9.90646 30.5802 10.0602C30.4264 10.214 30.34 10.4226 30.34 10.6401V14.4778L28.2304 17.4363C27.9994 17.7589 27.7866 18.0941 27.593 18.4403L29.0248 19.2398C29.1888 18.9464 29.369 18.6624 29.5646 18.3891L31.8276 15.2157C31.9266 15.0768 31.9799 14.9106 31.98 14.7401V11.4601H35.26V14.7401C35.2601 14.9108 35.3134 15.0772 35.4125 15.2162L37.6778 18.3929C38.1388 19.036 38.5115 19.738 38.786 20.4801H32.8V22.1201H39.2165C39.3064 22.6209 39.3544 23.1283 39.36 23.6371V23.7601H32.8V25.4001H39.36V27.0401H32.8V28.6801H39.0415L38.8443 29.2818C38.439 30.4862 38.4386 31.7901 38.8431 32.9947L39.1398 33.9C39.2848 34.3319 39.3591 34.7844 39.36 35.2401H32.8V36.8801H39.36V38.5201H32.8V40.1601H39.36V41.8001H32.8V43.4401H39.36V46.7201C39.3596 47.1549 39.1867 47.5718 38.8792 47.8792C38.5717 48.1867 38.1548 48.3596 37.72 48.3601H35.9407C35.8321 48.3601 35.7245 48.3386 35.6242 48.2968C35.5239 48.255 35.4329 48.1938 35.3565 48.1166C34.8903 47.667 34.2679 47.4158 33.6203 47.4158C32.9727 47.4158 32.3503 47.667 31.8842 48.1166L33.0438 49.2762C33.1975 49.1249 33.4046 49.0401 33.6203 49.0401C33.836 49.0401 34.0431 49.1249 34.1969 49.2762C34.4253 49.5061 34.697 49.6885 34.9963 49.8127C35.2956 49.937 35.6166 50.0007 35.9407 50H37.72C38.5896 49.9991 39.4233 49.6532 40.0382 49.0383C40.6531 48.4234 40.999 47.5897 41 46.7201V35.2401C40.9993 34.6096 40.8969 33.9833 40.6969 33.3854L40.4002 32.4801C40.1062 31.6096 40.1066 30.6666 40.4014 29.7964L40.6987 28.8899C40.7933 28.5928 40.869 28.29 40.9253 27.9834C40.9738 27.6712 40.9987 27.3559 41 27.0401V23.6371C40.9987 22.7845 40.8974 21.9351 40.6981 21.1061C40.3784 19.7855 39.8053 18.5395 39.0105 17.4375Z" fill="black"/>
<path d="M2.10277e-05 18.84V43.645C0.00189301 45.3299 0.672037 46.9452 1.86342 48.1366C3.05481 49.328 4.67014 49.9982 6.35502 50C7.73136 50.0042 9.07118 49.5574 10.1696 48.728C10.5478 48.4446 11.0078 48.2914 11.4804 48.2914C11.9531 48.2914 12.413 48.4446 12.7913 48.728C13.8259 49.5074 15.0751 49.9499 16.3696 49.9956L16.4305 48.3564C15.4708 48.3232 14.5447 47.9954 13.7779 47.4175C13.1148 46.9211 12.3087 46.6528 11.4804 46.6528C10.6521 46.6528 9.84608 46.9211 9.18299 47.4175C8.36866 48.0323 7.37534 48.3634 6.35502 48.36C5.10497 48.3586 3.90655 47.8613 3.02263 46.9774C2.13871 46.0935 1.64149 44.8951 1.64002 43.645V39.34H16.4V37.7H1.64002V21.3H19.68V19.66H1.64002V18.84C1.6363 16.7586 2.29422 14.7299 3.51877 13.0468C4.74333 11.3638 6.47114 10.1135 8.45268 9.47647C8.61758 9.42317 8.76133 9.31897 8.86327 9.17883C8.96521 9.03869 9.02009 8.86984 9.02002 8.69654V6.54005H13.94V8.69654C13.9399 8.86984 13.9948 9.03869 14.0968 9.17883C14.1987 9.31897 14.3425 9.42317 14.5074 9.47647C16.3666 10.0722 18.0056 11.2097 19.2142 12.7429C20.4229 14.2762 21.1461 16.1355 21.2912 18.0825L22.9264 17.9576C22.7653 15.7882 21.9884 13.7098 20.6871 11.9666C19.3858 10.2234 17.6141 8.88768 15.58 8.11639V6.54005H17.22V4.90005H15.58V1.62005C15.58 1.40257 15.4936 1.194 15.3398 1.04022C15.1861 0.886441 14.9775 0.800049 14.76 0.800049H8.20002C7.98254 0.800049 7.77397 0.886441 7.62019 1.04022C7.46641 1.194 7.38002 1.40257 7.38002 1.62005V4.90005H5.74002V6.54005H7.38002V8.11639C5.20641 8.94289 3.336 10.4117 2.01766 12.3273C0.699325 14.2429 -0.0044347 16.5146 2.10277e-05 18.84ZM9.02002 2.44005H13.94V4.90005H9.02002V2.44005Z" fill="black"/>
<path d="M6.92603 12.0197L7.83417 13.385C8.33805 13.0505 8.88541 12.7868 9.46095 12.601L8.95645 11.0403C8.23802 11.2723 7.55484 11.6019 6.92603 12.0197Z" fill="black"/>
<path d="M4.96006 18.1102C5.12015 16.6786 5.7463 15.3393 6.74212 14.2984L5.55937 13.1616C4.3139 14.4638 3.5305 16.1389 3.32959 17.9295L4.96006 18.1102Z" fill="black"/>
<path d="M4.92003 22.9402H3.28003V24.5802H4.92003V22.9402Z" fill="black"/>
<path d="M4.92003 26.2202H3.28003V33.6002H4.92003V26.2202Z" fill="black"/>
<path d="M22.9601 27.8599H21.3201V30.3199H22.9601V27.8599Z" fill="black"/>
<path d="M24.6 18.8401C22.7607 18.8401 21.32 19.9207 21.32 21.3001V24.0739L19.4033 25.0357C18.9931 25.2387 18.648 25.5525 18.4071 25.9416C18.1661 26.3306 18.039 26.7794 18.04 27.2371V31.1401C18.04 31.2674 18.0696 31.393 18.1266 31.5068L18.7632 32.7801L18.1266 34.0533C18.0696 34.1672 18.04 34.2928 18.04 34.4201V36.0601C18.04 36.1874 18.0696 36.313 18.1266 36.4268L18.7632 37.7001L18.1266 38.9733C18.0696 39.0872 18.04 39.2128 18.04 39.3401V40.9801C18.04 41.1074 18.0696 41.233 18.1266 41.3468L18.7632 42.6201L18.1266 43.8933C18.0696 44.0072 18.04 44.1328 18.04 44.2601V47.5401C18.041 48.1922 18.3005 48.8173 18.7617 49.2785C19.2228 49.7396 19.8479 49.9991 20.5 50.0001H28.7C28.8876 49.9992 29.0744 49.9782 29.2574 49.9372C29.799 49.8119 30.2821 49.5066 30.6277 49.0712C30.9733 48.6357 31.1609 48.096 31.16 47.5401V44.2601C31.1601 44.1328 31.1304 44.0072 31.0735 43.8933L30.4369 42.6201L31.0735 41.3468C31.1304 41.233 31.1601 41.1074 31.16 40.9801V39.3401C31.1601 39.2128 31.1304 39.0872 31.0735 38.9733L30.4369 37.7001L31.0735 36.4268C31.1304 36.313 31.1601 36.1874 31.16 36.0601V34.4201C31.1601 34.2928 31.1304 34.1672 31.0735 34.0533L30.4369 32.7801L31.0735 31.5068C31.1304 31.393 31.1601 31.2674 31.16 31.1401V27.2371C31.1612 26.7796 31.0342 26.331 30.7934 25.942C30.5525 25.5531 30.2075 25.2394 29.7975 25.0365L27.88 24.0739V21.3001C27.88 19.9207 26.4394 18.8401 24.6 18.8401ZM24.6 20.4801C25.6011 20.4801 26.24 20.9657 26.24 21.3001C26.24 21.6344 25.6011 22.1201 24.6 22.1201C23.599 22.1201 22.96 21.6344 22.96 21.3001C22.96 20.9657 23.599 20.4801 24.6 20.4801ZM29.0632 26.5028C29.2004 26.5702 29.3159 26.6748 29.3966 26.8046C29.4774 26.9344 29.5202 27.0842 29.52 27.2371V30.9467L29.0132 31.9601H22.14V33.6001H29.0132L29.52 34.6135V35.8667L29.0132 36.8801H22.14V38.5201H29.0132L29.52 39.5335V40.7867L29.0132 41.8001H22.14V43.4401H29.0132L29.52 44.4535V47.5401C29.5189 47.7229 29.4573 47.9002 29.345 48.0443C29.2326 48.1885 29.0757 48.2915 28.8987 48.3372C28.8334 48.3517 28.7669 48.3594 28.7 48.3601H20.5C20.3735 48.3596 20.2488 48.3298 20.1356 48.2732C20.0224 48.2166 19.9238 48.1347 19.8474 48.0337C19.7385 47.8922 19.6796 47.7186 19.68 47.5401V44.4535L20.4135 42.9868C20.4704 42.8729 20.5 42.7474 20.5 42.6201C20.5 42.4928 20.4704 42.3672 20.4135 42.2533L19.68 40.7867V39.5335L20.4135 38.0668C20.4704 37.9529 20.5 37.8274 20.5 37.7001C20.5 37.5728 20.4704 37.4472 20.4135 37.3333L19.68 35.8667V34.6135L20.4135 33.1468C20.4704 33.0329 20.5 32.9074 20.5 32.7801C20.5 32.6528 20.4704 32.5272 20.4135 32.4133L19.68 30.9467V27.2371C19.68 27.084 19.7229 26.934 19.8038 26.8041C19.8847 26.6742 20.0004 26.5695 20.1377 26.502L22.5076 25.313C22.6436 25.2449 22.758 25.1402 22.8379 25.0108C22.9178 24.8813 22.9601 24.7322 22.96 24.5801V23.4284C23.4791 23.6473 24.0367 23.7601 24.6 23.7601C25.1634 23.7601 25.721 23.6473 26.24 23.4284V24.5801C26.24 24.7322 26.2823 24.8813 26.3622 25.0107C26.4421 25.1401 26.5565 25.2447 26.6925 25.3128L29.0632 26.5028Z" fill="black"/>
</svg>
